G04 EAGLE Gerber RS-274X export*
G75*
%MOMM*%
%FSLAX34Y34*%
%LPD*%
%INSoldermask Top*%
%IPPOS*%
%AMOC8*
5,1,8,0,0,1.08239X$1,22.5*%
G01*
G04 Define Apertures*
%ADD10R,1.603200X1.253200*%
%ADD11R,1.103200X0.903200*%
%ADD12R,1.603200X1.603200*%
%ADD13R,0.903200X1.103200*%
%ADD14R,2.403200X2.203200*%
%ADD15R,1.003200X1.003200*%
%ADD16R,1.403200X0.803200*%
%ADD17R,1.143200X1.173200*%
%ADD18R,1.103200X1.003200*%
%ADD19R,1.353200X1.003200*%
%ADD20R,1.103200X0.803200*%
%ADD21R,0.503200X1.003200*%
%ADD22R,0.603200X1.003200*%
%ADD23R,1.353200X0.503200*%
%ADD24R,2.203200X2.383200*%
%ADD25C,0.853200*%
%ADD26R,2.203200X1.403200*%
%ADD27R,1.553200X0.803200*%
%ADD28R,1.403200X2.003200*%
%ADD29R,2.103200X1.603200*%
%ADD30R,1.703200X0.903200*%
%ADD31R,5.029200X1.092200*%
%ADD32R,1.403200X0.753200*%
%ADD33R,1.703200X3.803200*%
%ADD34R,1.003200X1.103200*%
%ADD35R,1.253200X0.703200*%
%ADD36C,0.330503*%
%ADD37R,0.152400X1.828800*%
%ADD38R,1.371600X1.803400*%
%ADD39C,2.203200*%
%ADD40C,0.315166*%
%ADD41R,3.603200X4.503200*%
%ADD42R,1.103200X1.703200*%
%ADD43C,0.349006*%
%ADD44C,0.269722*%
%ADD45R,1.103200X1.503200*%
%ADD46C,0.655600*%
D10*
X657580Y1096888D03*
X622580Y1096888D03*
X622580Y1081888D03*
X657580Y1081888D03*
D11*
X1574800Y44300D03*
X1574800Y57300D03*
X215900Y933300D03*
X215900Y946300D03*
D12*
X990600Y544400D03*
X990600Y522400D03*
D11*
X1219200Y565300D03*
X1219200Y552300D03*
D13*
X1251100Y381000D03*
X1238100Y381000D03*
D11*
X1612900Y44300D03*
X1612900Y57300D03*
D13*
X1314300Y571500D03*
X1327300Y571500D03*
D11*
X1397000Y412600D03*
X1397000Y425600D03*
D14*
X1346200Y429500D03*
X1346200Y459500D03*
D11*
X1041400Y374500D03*
X1041400Y387500D03*
D13*
X1479400Y558800D03*
X1492400Y558800D03*
D11*
X495300Y933300D03*
X495300Y946300D03*
D13*
X1479400Y584200D03*
X1492400Y584200D03*
D11*
X622300Y907900D03*
X622300Y920900D03*
X812800Y323700D03*
X812800Y336700D03*
D13*
X869800Y660400D03*
X882800Y660400D03*
X209400Y863600D03*
X222400Y863600D03*
D10*
X257530Y1096888D03*
X222530Y1096888D03*
X222530Y1081888D03*
X257530Y1081888D03*
D15*
X1193800Y551300D03*
X1193800Y566300D03*
D11*
X381000Y933300D03*
X381000Y946300D03*
D16*
X1549600Y568300D03*
X1549600Y558800D03*
X1549600Y549300D03*
X1574600Y549300D03*
X1574600Y558800D03*
X1574600Y568300D03*
D17*
X292100Y284600D03*
X292100Y299600D03*
X228600Y284600D03*
X228600Y299600D03*
X190500Y284600D03*
X190500Y299600D03*
D18*
X1257300Y408600D03*
X1257300Y429600D03*
D19*
X906500Y419100D03*
X871500Y419100D03*
X960400Y342900D03*
X995400Y342900D03*
X960400Y381000D03*
X995400Y381000D03*
D17*
X406400Y284600D03*
X406400Y299600D03*
D18*
X952500Y522900D03*
X952500Y543900D03*
D17*
X457200Y284600D03*
X457200Y299600D03*
X355600Y284600D03*
X355600Y299600D03*
D11*
X800100Y247500D03*
X800100Y260500D03*
X1066800Y247500D03*
X1066800Y260500D03*
X1143000Y247500D03*
X1143000Y260500D03*
X1104900Y247500D03*
X1104900Y260500D03*
X838200Y247500D03*
X838200Y260500D03*
X876300Y247500D03*
X876300Y260500D03*
X914400Y247500D03*
X914400Y260500D03*
X952500Y247500D03*
X952500Y260500D03*
X990600Y247500D03*
X990600Y260500D03*
X1028700Y247500D03*
X1028700Y260500D03*
D20*
X433100Y981100D03*
X433100Y990600D03*
X433100Y1000100D03*
X405100Y1000100D03*
X405100Y981100D03*
X1281400Y441300D03*
X1281400Y431800D03*
X1281400Y422300D03*
X1309400Y422300D03*
X1309400Y441300D03*
D21*
X908400Y166900D03*
X903400Y166900D03*
X898400Y166900D03*
X893400Y166900D03*
X888400Y166900D03*
X883400Y166900D03*
X878400Y166900D03*
X873400Y166900D03*
X868400Y166900D03*
X863400Y166900D03*
X858400Y166900D03*
X853400Y166900D03*
X848400Y166900D03*
X843400Y166900D03*
X838400Y166900D03*
X833400Y166900D03*
X828400Y166900D03*
X823400Y166900D03*
X818400Y166900D03*
X813400Y166900D03*
X808400Y166900D03*
X803400Y166900D03*
X798400Y166900D03*
X793400Y166900D03*
D22*
X918400Y141900D03*
X783400Y141900D03*
D23*
X1639620Y499900D03*
X1639620Y507900D03*
X1639620Y520900D03*
X1639620Y530900D03*
X1639620Y535900D03*
X1639620Y545900D03*
X1639620Y558900D03*
X1639620Y566900D03*
X1639620Y563900D03*
X1639620Y555900D03*
X1639620Y550900D03*
X1639620Y540900D03*
X1639620Y525900D03*
X1639620Y515900D03*
X1639620Y510900D03*
X1639620Y502900D03*
D24*
X1684670Y482300D03*
X1684670Y584500D03*
X1645370Y482300D03*
X1645370Y584500D03*
D25*
X1650370Y504500D03*
X1650370Y562300D03*
D26*
X1689238Y162500D03*
X1689238Y218500D03*
D27*
X1652488Y175500D03*
X1652488Y185500D03*
X1652488Y195500D03*
X1652488Y205500D03*
D28*
X154000Y855390D03*
X154000Y912390D03*
D29*
X11500Y825390D03*
X21500Y956890D03*
D30*
X50000Y873390D03*
X54000Y884390D03*
X50000Y895390D03*
X48000Y906390D03*
X50000Y917390D03*
X48000Y928390D03*
X50000Y939390D03*
X50000Y950390D03*
D28*
X154000Y883890D03*
X154000Y940890D03*
D31*
X889000Y378460D03*
X889000Y332740D03*
D32*
X1270301Y549300D03*
X1270301Y558800D03*
X1270301Y568300D03*
X1244299Y568300D03*
X1244299Y549300D03*
D33*
X1584600Y393700D03*
X1539600Y393700D03*
D34*
X1374800Y498000D03*
X1393800Y498000D03*
X1384300Y519000D03*
D18*
X764700Y339700D03*
X764700Y320700D03*
X785700Y330200D03*
D35*
X700700Y260500D03*
X700700Y247500D03*
X721700Y254000D03*
D11*
X203200Y425300D03*
X203200Y438300D03*
X457200Y349100D03*
X457200Y362100D03*
D13*
X1212700Y584200D03*
X1225700Y584200D03*
D11*
X1498600Y44300D03*
X1498600Y57300D03*
X1143000Y615800D03*
X1143000Y628800D03*
X1219200Y412600D03*
X1219200Y425600D03*
D13*
X653900Y152400D03*
X666900Y152400D03*
X1505100Y482600D03*
X1492100Y482600D03*
X1505100Y508000D03*
X1492100Y508000D03*
D11*
X1270000Y501500D03*
X1270000Y514500D03*
X1536700Y44300D03*
X1536700Y57300D03*
X1092200Y615800D03*
X1092200Y628800D03*
X736600Y323700D03*
X736600Y336700D03*
X685800Y349400D03*
X685800Y336400D03*
X355600Y349100D03*
X355600Y362100D03*
X292100Y349100D03*
X292100Y362100D03*
X228600Y349100D03*
X228600Y362100D03*
X190500Y349100D03*
X190500Y362100D03*
X406400Y349100D03*
X406400Y362100D03*
D10*
X507720Y1096888D03*
X472720Y1096888D03*
X472720Y1081888D03*
X507720Y1081888D03*
D11*
X660400Y1035200D03*
X660400Y1022200D03*
D13*
X882500Y508000D03*
X895500Y508000D03*
D11*
X215900Y996800D03*
X215900Y1009800D03*
D13*
X692000Y292100D03*
X705000Y292100D03*
D11*
X495300Y984100D03*
X495300Y997100D03*
D36*
X1551964Y120624D02*
X1551964Y111736D01*
X1548236Y111736D01*
X1548236Y120624D01*
X1551964Y120624D01*
X1551964Y114876D02*
X1548236Y114876D01*
X1548236Y118016D02*
X1551964Y118016D01*
X1559964Y120624D02*
X1559964Y111736D01*
X1556236Y111736D01*
X1556236Y120624D01*
X1559964Y120624D01*
X1559964Y114876D02*
X1556236Y114876D01*
X1556236Y118016D02*
X1559964Y118016D01*
X1567964Y120624D02*
X1567964Y111736D01*
X1564236Y111736D01*
X1564236Y120624D01*
X1567964Y120624D01*
X1567964Y114876D02*
X1564236Y114876D01*
X1564236Y118016D02*
X1567964Y118016D01*
X1575964Y120624D02*
X1575964Y111736D01*
X1572236Y111736D01*
X1572236Y120624D01*
X1575964Y120624D01*
X1575964Y114876D02*
X1572236Y114876D01*
X1572236Y118016D02*
X1575964Y118016D01*
X1576164Y91464D02*
X1576164Y82576D01*
X1572436Y82576D01*
X1572436Y91464D01*
X1576164Y91464D01*
X1576164Y85716D02*
X1572436Y85716D01*
X1572436Y88856D02*
X1576164Y88856D01*
X1567964Y91464D02*
X1567964Y82576D01*
X1564236Y82576D01*
X1564236Y91464D01*
X1567964Y91464D01*
X1567964Y85716D02*
X1564236Y85716D01*
X1564236Y88856D02*
X1567964Y88856D01*
X1559964Y91464D02*
X1559964Y82576D01*
X1556236Y82576D01*
X1556236Y91464D01*
X1559964Y91464D01*
X1559964Y85716D02*
X1556236Y85716D01*
X1556236Y88856D02*
X1559964Y88856D01*
X1551964Y91464D02*
X1551964Y82576D01*
X1548236Y82576D01*
X1548236Y91464D01*
X1551964Y91464D01*
X1551964Y85716D02*
X1548236Y85716D01*
X1548236Y88856D02*
X1551964Y88856D01*
D37*
X660400Y190500D03*
D38*
X652780Y190500D03*
X668020Y190500D03*
D39*
X520700Y762000D03*
X1422400Y228600D03*
X571500Y762000D03*
X1358900Y228600D03*
X1295400Y228600D03*
X266700Y177800D03*
X203200Y177800D03*
X139700Y177800D03*
X76200Y177800D03*
X190500Y88900D03*
X139700Y88900D03*
X88900Y88900D03*
X1447800Y635000D03*
X1447800Y584200D03*
X850900Y1066800D03*
X800100Y1066800D03*
X749300Y1066800D03*
D40*
X371590Y588910D02*
X363310Y588910D01*
X363310Y592190D01*
X371590Y592190D01*
X371590Y588910D01*
X371590Y591904D02*
X363310Y591904D01*
X363310Y576210D02*
X371590Y576210D01*
X363310Y576210D02*
X363310Y579490D01*
X371590Y579490D01*
X371590Y576210D01*
X371590Y579204D02*
X363310Y579204D01*
X363310Y563510D02*
X371590Y563510D01*
X363310Y563510D02*
X363310Y566790D01*
X371590Y566790D01*
X371590Y563510D01*
X371590Y566504D02*
X363310Y566504D01*
X363310Y550810D02*
X371590Y550810D01*
X363310Y550810D02*
X363310Y554090D01*
X371590Y554090D01*
X371590Y550810D01*
X371590Y553804D02*
X363310Y553804D01*
X441210Y550810D02*
X449490Y550810D01*
X441210Y550810D02*
X441210Y554090D01*
X449490Y554090D01*
X449490Y550810D01*
X449490Y553804D02*
X441210Y553804D01*
X441210Y563510D02*
X449490Y563510D01*
X441210Y563510D02*
X441210Y566790D01*
X449490Y566790D01*
X449490Y563510D01*
X449490Y566504D02*
X441210Y566504D01*
X441210Y576210D02*
X449490Y576210D01*
X441210Y576210D02*
X441210Y579490D01*
X449490Y579490D01*
X449490Y576210D01*
X449490Y579204D02*
X441210Y579204D01*
X441210Y588910D02*
X449490Y588910D01*
X441210Y588910D02*
X441210Y592190D01*
X449490Y592190D01*
X449490Y588910D01*
X449490Y591904D02*
X441210Y591904D01*
D41*
X406400Y571500D03*
D42*
X76940Y485270D03*
X89640Y485270D03*
X102340Y485270D03*
X115040Y485270D03*
X127740Y485270D03*
X140440Y485270D03*
X153140Y485270D03*
X165840Y485270D03*
X178540Y485270D03*
X191240Y485270D03*
X203940Y485270D03*
X216640Y485270D03*
X229340Y485270D03*
X242040Y485270D03*
X242040Y660270D03*
X229340Y660270D03*
X216640Y660270D03*
X203940Y660270D03*
X191240Y660270D03*
X178540Y660270D03*
X165840Y660270D03*
X153140Y660270D03*
X140440Y660270D03*
X127740Y660270D03*
X115040Y660270D03*
X102340Y660270D03*
X89640Y660270D03*
X76940Y660270D03*
D15*
X134140Y557720D03*
X121640Y545220D03*
X121640Y557720D03*
X121640Y570220D03*
X134140Y545220D03*
X134140Y570220D03*
X146640Y545220D03*
X146640Y557720D03*
X146640Y570220D03*
D43*
X905829Y621229D02*
X905829Y640271D01*
X910271Y640271D01*
X910271Y621229D01*
X905829Y621229D01*
X905829Y624544D02*
X910271Y624544D01*
X910271Y627859D02*
X905829Y627859D01*
X905829Y631174D02*
X910271Y631174D01*
X910271Y634489D02*
X905829Y634489D01*
X905829Y637804D02*
X910271Y637804D01*
X893129Y640271D02*
X893129Y621229D01*
X893129Y640271D02*
X897571Y640271D01*
X897571Y621229D01*
X893129Y621229D01*
X893129Y624544D02*
X897571Y624544D01*
X897571Y627859D02*
X893129Y627859D01*
X893129Y631174D02*
X897571Y631174D01*
X897571Y634489D02*
X893129Y634489D01*
X893129Y637804D02*
X897571Y637804D01*
X880429Y640271D02*
X880429Y621229D01*
X880429Y640271D02*
X884871Y640271D01*
X884871Y621229D01*
X880429Y621229D01*
X880429Y624544D02*
X884871Y624544D01*
X884871Y627859D02*
X880429Y627859D01*
X880429Y631174D02*
X884871Y631174D01*
X884871Y634489D02*
X880429Y634489D01*
X880429Y637804D02*
X884871Y637804D01*
X867729Y640271D02*
X867729Y621229D01*
X867729Y640271D02*
X872171Y640271D01*
X872171Y621229D01*
X867729Y621229D01*
X867729Y624544D02*
X872171Y624544D01*
X872171Y627859D02*
X867729Y627859D01*
X867729Y631174D02*
X872171Y631174D01*
X872171Y634489D02*
X867729Y634489D01*
X867729Y637804D02*
X872171Y637804D01*
X855029Y640271D02*
X855029Y621229D01*
X855029Y640271D02*
X859471Y640271D01*
X859471Y621229D01*
X855029Y621229D01*
X855029Y624544D02*
X859471Y624544D01*
X859471Y627859D02*
X855029Y627859D01*
X855029Y631174D02*
X859471Y631174D01*
X859471Y634489D02*
X855029Y634489D01*
X855029Y637804D02*
X859471Y637804D01*
X842329Y640271D02*
X842329Y621229D01*
X842329Y640271D02*
X846771Y640271D01*
X846771Y621229D01*
X842329Y621229D01*
X842329Y624544D02*
X846771Y624544D01*
X846771Y627859D02*
X842329Y627859D01*
X842329Y631174D02*
X846771Y631174D01*
X846771Y634489D02*
X842329Y634489D01*
X842329Y637804D02*
X846771Y637804D01*
X829629Y640271D02*
X829629Y621229D01*
X829629Y640271D02*
X834071Y640271D01*
X834071Y621229D01*
X829629Y621229D01*
X829629Y624544D02*
X834071Y624544D01*
X834071Y627859D02*
X829629Y627859D01*
X829629Y631174D02*
X834071Y631174D01*
X834071Y634489D02*
X829629Y634489D01*
X829629Y637804D02*
X834071Y637804D01*
X816929Y640271D02*
X816929Y621229D01*
X816929Y640271D02*
X821371Y640271D01*
X821371Y621229D01*
X816929Y621229D01*
X816929Y624544D02*
X821371Y624544D01*
X821371Y627859D02*
X816929Y627859D01*
X816929Y631174D02*
X821371Y631174D01*
X821371Y634489D02*
X816929Y634489D01*
X816929Y637804D02*
X821371Y637804D01*
X816929Y547171D02*
X816929Y528129D01*
X816929Y547171D02*
X821371Y547171D01*
X821371Y528129D01*
X816929Y528129D01*
X816929Y531444D02*
X821371Y531444D01*
X821371Y534759D02*
X816929Y534759D01*
X816929Y538074D02*
X821371Y538074D01*
X821371Y541389D02*
X816929Y541389D01*
X816929Y544704D02*
X821371Y544704D01*
X829629Y547171D02*
X829629Y528129D01*
X829629Y547171D02*
X834071Y547171D01*
X834071Y528129D01*
X829629Y528129D01*
X829629Y531444D02*
X834071Y531444D01*
X834071Y534759D02*
X829629Y534759D01*
X829629Y538074D02*
X834071Y538074D01*
X834071Y541389D02*
X829629Y541389D01*
X829629Y544704D02*
X834071Y544704D01*
X842329Y547171D02*
X842329Y528129D01*
X842329Y547171D02*
X846771Y547171D01*
X846771Y528129D01*
X842329Y528129D01*
X842329Y531444D02*
X846771Y531444D01*
X846771Y534759D02*
X842329Y534759D01*
X842329Y538074D02*
X846771Y538074D01*
X846771Y541389D02*
X842329Y541389D01*
X842329Y544704D02*
X846771Y544704D01*
X855029Y547171D02*
X855029Y528129D01*
X855029Y547171D02*
X859471Y547171D01*
X859471Y528129D01*
X855029Y528129D01*
X855029Y531444D02*
X859471Y531444D01*
X859471Y534759D02*
X855029Y534759D01*
X855029Y538074D02*
X859471Y538074D01*
X859471Y541389D02*
X855029Y541389D01*
X855029Y544704D02*
X859471Y544704D01*
X867729Y547171D02*
X867729Y528129D01*
X867729Y547171D02*
X872171Y547171D01*
X872171Y528129D01*
X867729Y528129D01*
X867729Y531444D02*
X872171Y531444D01*
X872171Y534759D02*
X867729Y534759D01*
X867729Y538074D02*
X872171Y538074D01*
X872171Y541389D02*
X867729Y541389D01*
X867729Y544704D02*
X872171Y544704D01*
X880429Y547171D02*
X880429Y528129D01*
X880429Y547171D02*
X884871Y547171D01*
X884871Y528129D01*
X880429Y528129D01*
X880429Y531444D02*
X884871Y531444D01*
X884871Y534759D02*
X880429Y534759D01*
X880429Y538074D02*
X884871Y538074D01*
X884871Y541389D02*
X880429Y541389D01*
X880429Y544704D02*
X884871Y544704D01*
X893129Y547171D02*
X893129Y528129D01*
X893129Y547171D02*
X897571Y547171D01*
X897571Y528129D01*
X893129Y528129D01*
X893129Y531444D02*
X897571Y531444D01*
X897571Y534759D02*
X893129Y534759D01*
X893129Y538074D02*
X897571Y538074D01*
X897571Y541389D02*
X893129Y541389D01*
X893129Y544704D02*
X897571Y544704D01*
X905829Y547171D02*
X905829Y528129D01*
X905829Y547171D02*
X910271Y547171D01*
X910271Y528129D01*
X905829Y528129D01*
X905829Y531444D02*
X910271Y531444D01*
X910271Y534759D02*
X905829Y534759D01*
X905829Y538074D02*
X910271Y538074D01*
X910271Y541389D02*
X905829Y541389D01*
X905829Y544704D02*
X910271Y544704D01*
D44*
X1428782Y539618D02*
X1435718Y539618D01*
X1435718Y537582D01*
X1428782Y537582D01*
X1428782Y539618D01*
X1428782Y544618D02*
X1435718Y544618D01*
X1435718Y542582D01*
X1428782Y542582D01*
X1428782Y544618D01*
X1428782Y549618D02*
X1435718Y549618D01*
X1435718Y547582D01*
X1428782Y547582D01*
X1428782Y549618D01*
X1428782Y554618D02*
X1435718Y554618D01*
X1435718Y552582D01*
X1428782Y552582D01*
X1428782Y554618D01*
X1416018Y554618D02*
X1409082Y554618D01*
X1416018Y554618D02*
X1416018Y552582D01*
X1409082Y552582D01*
X1409082Y554618D01*
X1409082Y549618D02*
X1416018Y549618D01*
X1416018Y547582D01*
X1409082Y547582D01*
X1409082Y549618D01*
X1409082Y544618D02*
X1416018Y544618D01*
X1416018Y542582D01*
X1409082Y542582D01*
X1409082Y544618D01*
X1409082Y539618D02*
X1416018Y539618D01*
X1416018Y537582D01*
X1409082Y537582D01*
X1409082Y539618D01*
D45*
X1422400Y546100D03*
D46*
X247500Y285000D03*
X282500Y285000D03*
X370000Y545000D03*
X385000Y550000D03*
X117500Y532500D03*
X155000Y545000D03*
X92500Y552500D03*
X140000Y912500D03*
X140000Y857500D03*
X215000Y855000D03*
X230000Y1000000D03*
X1500000Y580000D03*
X1500000Y567500D03*
X1560000Y557500D03*
X1452500Y540000D03*
X1330000Y562500D03*
X1577500Y585000D03*
X872500Y157500D03*
X827500Y175000D03*
X795000Y152500D03*
X867500Y262500D03*
X905000Y262500D03*
X1240000Y407500D03*
X1240000Y390000D03*
X800000Y222500D03*
X1257500Y437500D03*
X225000Y150000D03*
X1500000Y520000D03*
X1650000Y520000D03*
X1650000Y530000D03*
X1650000Y540000D03*
X1577500Y542500D03*
X1572500Y575000D03*
X1652500Y570000D03*
X1535000Y530000D03*
X1650000Y547500D03*
X1565000Y515000D03*
X242500Y467500D03*
X1545000Y515000D03*
X247500Y472500D03*
X172500Y90000D03*
X580000Y255000D03*
X1250000Y395000D03*
X1247500Y407500D03*
X115000Y522500D03*
X92500Y545000D03*
X422500Y520000D03*
X107500Y897500D03*
X825000Y1092500D03*
X842500Y157500D03*
X237500Y290000D03*
X480000Y290000D03*
X155000Y437500D03*
X492500Y597500D03*
X452500Y557500D03*
X847500Y147500D03*
X340000Y250000D03*
X487500Y247500D03*
X145000Y472500D03*
X267500Y477500D03*
X67500Y912500D03*
X257500Y685000D03*
X765000Y1065000D03*
X62500Y937500D03*
X87500Y792500D03*
X290000Y382500D03*
X200000Y357500D03*
X1370000Y540000D03*
X367500Y535000D03*
X112500Y672500D03*
X315000Y652500D03*
X675000Y152500D03*
X675000Y165000D03*
X735000Y310000D03*
X740000Y217500D03*
X740000Y255000D03*
X880000Y370000D03*
X895000Y417500D03*
X950000Y390000D03*
X807500Y217500D03*
X1017500Y257500D03*
X970000Y265000D03*
X797500Y205000D03*
X987500Y297500D03*
X902500Y157500D03*
X697500Y240000D03*
X685000Y310000D03*
X910000Y157500D03*
X710000Y240000D03*
X702500Y310000D03*
X247500Y432500D03*
X397500Y350000D03*
X852500Y142500D03*
X1335000Y142500D03*
X417500Y185000D03*
X222500Y497500D03*
X285000Y497500D03*
X217500Y925000D03*
X225000Y995000D03*
X142500Y850000D03*
X120000Y672500D03*
X432500Y672500D03*
X122500Y600000D03*
X145000Y135000D03*
X235000Y647500D03*
X857500Y647500D03*
X262500Y462500D03*
X1495000Y65000D03*
X1630000Y195000D03*
X1565000Y130000D03*
X1397500Y537500D03*
X902500Y525000D03*
X282500Y535000D03*
X1390000Y542500D03*
X915000Y545000D03*
X182500Y637500D03*
X1540000Y357500D03*
X1387500Y510000D03*
X862500Y157500D03*
X1277500Y147500D03*
X97500Y527500D03*
X107500Y497500D03*
X272500Y515000D03*
X272500Y690000D03*
X507500Y925000D03*
X495000Y1087500D03*
X1132500Y615000D03*
X892500Y645000D03*
X167500Y437500D03*
X167500Y215000D03*
X955000Y437500D03*
X1005000Y617500D03*
X915000Y625000D03*
X182500Y525000D03*
X1002500Y540000D03*
X205000Y137500D03*
X105000Y575000D03*
X370000Y642500D03*
X212500Y137500D03*
X147500Y462500D03*
X410000Y600000D03*
X257500Y677500D03*
X392500Y680000D03*
X875000Y612500D03*
X875000Y582500D03*
X792500Y217500D03*
X1095000Y255000D03*
X802500Y192500D03*
X1057500Y247500D03*
X812500Y207500D03*
X982500Y252500D03*
X817500Y212500D03*
X935000Y247500D03*
X822500Y217500D03*
X905000Y252500D03*
X887500Y152500D03*
X945000Y235000D03*
X892500Y157500D03*
X872500Y177500D03*
X832500Y222500D03*
X810000Y240000D03*
M02*
