G04 EAGLE Gerber RS-274X export*
G75*
%MOMM*%
%FSLAX34Y34*%
%LPD*%
%INBottom Copper*%
%IPPOS*%
%AMOC8*
5,1,8,0,0,1.08239X$1,22.5*%
G01*
G04 Define Apertures*
%ADD10C,0.150000*%
%ADD11C,0.452400*%
G36*
X721976Y2060D02*
X721678Y2000D01*
X2762Y2000D01*
X2487Y2051D01*
X2232Y2215D01*
X2060Y2465D01*
X2000Y2762D01*
X2000Y479076D01*
X2051Y479351D01*
X2215Y479606D01*
X2465Y479778D01*
X2762Y479838D01*
X64644Y479838D01*
X66262Y481456D01*
X66262Y661544D01*
X64644Y663162D01*
X2762Y663162D01*
X2487Y663213D01*
X2232Y663377D01*
X2060Y663627D01*
X2000Y663924D01*
X2000Y1108476D01*
X2051Y1108751D01*
X2215Y1109006D01*
X2465Y1109178D01*
X2762Y1109238D01*
X202565Y1109238D01*
X202840Y1109187D01*
X203095Y1109023D01*
X203267Y1108773D01*
X203327Y1108476D01*
X203327Y1103756D01*
X204945Y1102138D01*
X673949Y1102138D01*
X675567Y1103756D01*
X675567Y1108476D01*
X675618Y1108751D01*
X675782Y1109006D01*
X676032Y1109178D01*
X676329Y1109238D01*
X918476Y1109238D01*
X918751Y1109187D01*
X919006Y1109023D01*
X919178Y1108773D01*
X919238Y1108476D01*
X919238Y670856D01*
X920856Y669238D01*
X1698476Y669238D01*
X1698751Y669187D01*
X1699006Y669023D01*
X1699178Y668773D01*
X1699238Y668476D01*
X1699238Y2762D01*
X1699187Y2487D01*
X1699023Y2232D01*
X1698773Y2060D01*
X1698476Y2000D01*
X943324Y2000D01*
X943049Y2051D01*
X942794Y2215D01*
X942622Y2465D01*
X942562Y2762D01*
X942562Y101144D01*
X940944Y102762D01*
X758656Y102762D01*
X757038Y101144D01*
X757038Y3524D01*
X756987Y3249D01*
X756823Y2994D01*
X756573Y2822D01*
X756276Y2762D01*
X722756Y2762D01*
X722217Y2223D01*
X721976Y2060D01*
G37*
%LPC*%
G36*
X1493537Y61468D02*
X1496463Y61468D01*
X1498532Y63537D01*
X1498532Y66463D01*
X1496463Y68532D01*
X1494640Y68532D01*
X1494354Y68588D01*
X1494102Y68755D01*
X1113337Y449520D01*
X278652Y449520D01*
X278366Y449576D01*
X278114Y449743D01*
X266255Y461602D01*
X266092Y461843D01*
X266032Y462140D01*
X266032Y463963D01*
X265816Y464179D01*
X265663Y464399D01*
X265593Y464694D01*
X265644Y464993D01*
X265807Y465248D01*
X266057Y465420D01*
X266355Y465480D01*
X383337Y465480D01*
X430614Y512757D01*
X430855Y512920D01*
X431152Y512980D01*
X1383645Y512980D01*
X1383909Y512933D01*
X1384167Y512774D01*
X1384342Y512526D01*
X1384407Y512230D01*
X1384352Y511932D01*
X1384184Y511679D01*
X1383968Y511463D01*
X1383968Y508537D01*
X1386037Y506468D01*
X1387860Y506468D01*
X1388146Y506412D01*
X1388398Y506245D01*
X1536245Y358398D01*
X1536408Y358157D01*
X1536468Y357860D01*
X1536468Y356037D01*
X1538537Y353968D01*
X1541463Y353968D01*
X1543532Y356037D01*
X1543532Y358963D01*
X1541463Y361032D01*
X1539640Y361032D01*
X1539354Y361088D01*
X1539102Y361255D01*
X1393678Y506679D01*
X1393525Y506899D01*
X1393455Y507194D01*
X1393506Y507493D01*
X1393669Y507748D01*
X1393919Y507920D01*
X1394216Y507980D01*
X1560837Y507980D01*
X1564102Y511245D01*
X1564343Y511408D01*
X1564640Y511468D01*
X1566463Y511468D01*
X1568532Y513537D01*
X1568532Y516463D01*
X1568316Y516679D01*
X1568163Y516899D01*
X1568093Y517194D01*
X1568144Y517493D01*
X1568307Y517748D01*
X1568557Y517920D01*
X1568855Y517980D01*
X1628284Y517980D01*
X1628547Y517933D01*
X1628805Y517774D01*
X1628980Y517526D01*
X1629046Y517230D01*
X1628990Y516932D01*
X1628822Y516679D01*
X1627980Y515837D01*
X1627980Y198291D01*
X1627924Y198005D01*
X1627757Y197752D01*
X1626468Y196463D01*
X1626468Y194640D01*
X1626412Y194354D01*
X1626245Y194102D01*
X1565898Y133755D01*
X1565657Y133592D01*
X1565360Y133532D01*
X1563537Y133532D01*
X1561468Y131463D01*
X1561468Y128537D01*
X1563537Y126468D01*
X1566463Y126468D01*
X1568532Y128537D01*
X1568532Y130360D01*
X1568588Y130646D01*
X1568755Y130898D01*
X1629102Y191245D01*
X1629343Y191408D01*
X1629640Y191468D01*
X1631463Y191468D01*
X1633532Y193537D01*
X1633532Y196463D01*
X1632243Y197752D01*
X1632080Y197993D01*
X1632020Y198291D01*
X1632020Y512218D01*
X1632071Y512493D01*
X1632235Y512748D01*
X1632485Y512920D01*
X1632782Y512980D01*
X1653337Y512980D01*
X1657020Y516663D01*
X1657020Y525837D01*
X1655837Y527020D01*
X1653855Y527020D01*
X1653591Y527067D01*
X1653333Y527226D01*
X1653158Y527474D01*
X1653093Y527770D01*
X1653148Y528068D01*
X1653316Y528321D01*
X1653532Y528537D01*
X1653532Y531463D01*
X1652243Y532752D01*
X1652080Y532993D01*
X1652020Y533291D01*
X1652020Y536709D01*
X1652076Y536995D01*
X1652243Y537248D01*
X1653532Y538537D01*
X1653532Y541463D01*
X1651784Y543211D01*
X1651626Y543442D01*
X1651561Y543738D01*
X1651616Y544036D01*
X1651784Y544289D01*
X1653532Y546037D01*
X1653532Y548963D01*
X1651463Y551032D01*
X1648537Y551032D01*
X1647248Y549743D01*
X1647007Y549580D01*
X1646709Y549520D01*
X1551663Y549520D01*
X1535898Y533755D01*
X1535657Y533592D01*
X1535360Y533532D01*
X1533537Y533532D01*
X1531468Y531463D01*
X1531468Y528537D01*
X1531684Y528321D01*
X1531837Y528101D01*
X1531907Y527806D01*
X1531856Y527507D01*
X1531693Y527252D01*
X1531443Y527080D01*
X1531145Y527020D01*
X1391716Y527020D01*
X1391453Y527067D01*
X1391195Y527226D01*
X1391020Y527474D01*
X1390954Y527770D01*
X1391010Y528068D01*
X1391178Y528321D01*
X1396602Y533745D01*
X1396843Y533908D01*
X1397140Y533968D01*
X1398963Y533968D01*
X1401032Y536037D01*
X1401032Y538963D01*
X1398963Y541032D01*
X1396037Y541032D01*
X1393968Y538963D01*
X1393968Y537140D01*
X1393912Y536854D01*
X1393745Y536602D01*
X1384386Y527243D01*
X1384145Y527080D01*
X1383848Y527020D01*
X905791Y527020D01*
X905505Y527076D01*
X905252Y527243D01*
X903963Y528532D01*
X901037Y528532D01*
X899748Y527243D01*
X899507Y527080D01*
X899209Y527020D01*
X293652Y527020D01*
X293366Y527076D01*
X293114Y527243D01*
X286255Y534102D01*
X286092Y534343D01*
X286032Y534640D01*
X286032Y536463D01*
X285816Y536679D01*
X285663Y536899D01*
X285593Y537194D01*
X285644Y537493D01*
X285807Y537748D01*
X286057Y537920D01*
X286355Y537980D01*
X363645Y537980D01*
X363909Y537933D01*
X364167Y537774D01*
X364342Y537526D01*
X364407Y537230D01*
X364352Y536932D01*
X364184Y536679D01*
X363968Y536463D01*
X363968Y533537D01*
X366037Y531468D01*
X368963Y531468D01*
X370252Y532757D01*
X370493Y532920D01*
X370791Y532980D01*
X1365837Y532980D01*
X1369102Y536245D01*
X1369343Y536408D01*
X1369640Y536468D01*
X1371463Y536468D01*
X1373532Y538537D01*
X1373532Y541463D01*
X1373316Y541679D01*
X1373163Y541899D01*
X1373093Y542194D01*
X1373144Y542493D01*
X1373307Y542748D01*
X1373557Y542920D01*
X1373855Y542980D01*
X1385706Y542980D01*
X1385981Y542929D01*
X1386236Y542765D01*
X1386408Y542515D01*
X1386468Y542218D01*
X1386468Y541037D01*
X1388537Y538968D01*
X1391463Y538968D01*
X1393532Y541037D01*
X1393532Y543963D01*
X1391463Y546032D01*
X1389640Y546032D01*
X1389354Y546088D01*
X1389102Y546255D01*
X1388337Y547020D01*
X918291Y547020D01*
X918005Y547076D01*
X917752Y547243D01*
X916463Y548532D01*
X913537Y548532D01*
X912248Y547243D01*
X912007Y547080D01*
X911709Y547020D01*
X906152Y547020D01*
X905866Y547076D01*
X905614Y547243D01*
X875190Y577667D01*
X875037Y577887D01*
X874967Y578182D01*
X875018Y578481D01*
X875181Y578736D01*
X875431Y578908D01*
X875728Y578968D01*
X876463Y578968D01*
X878532Y581037D01*
X878532Y583963D01*
X877243Y585252D01*
X877080Y585493D01*
X877020Y585791D01*
X877020Y609209D01*
X877076Y609495D01*
X877243Y609748D01*
X878532Y611037D01*
X878532Y613963D01*
X876463Y616032D01*
X873537Y616032D01*
X871468Y613963D01*
X871468Y611037D01*
X872757Y609748D01*
X872920Y609507D01*
X872980Y609209D01*
X872980Y585791D01*
X872924Y585505D01*
X872757Y585252D01*
X871468Y583963D01*
X871468Y583228D01*
X871421Y582965D01*
X871262Y582707D01*
X871014Y582532D01*
X870718Y582466D01*
X870420Y582522D01*
X870167Y582690D01*
X845837Y607020D01*
X216152Y607020D01*
X215866Y607076D01*
X215614Y607243D01*
X186255Y636602D01*
X186092Y636843D01*
X186032Y637140D01*
X186032Y638963D01*
X185816Y639179D01*
X185663Y639399D01*
X185593Y639694D01*
X185644Y639993D01*
X185807Y640248D01*
X186057Y640420D01*
X186355Y640480D01*
X366709Y640480D01*
X366995Y640424D01*
X367248Y640257D01*
X368537Y638968D01*
X371463Y638968D01*
X373532Y641037D01*
X373532Y643963D01*
X373316Y644179D01*
X373163Y644399D01*
X373093Y644694D01*
X373144Y644993D01*
X373307Y645248D01*
X373557Y645420D01*
X373855Y645480D01*
X854209Y645480D01*
X854495Y645424D01*
X854748Y645257D01*
X856037Y643968D01*
X858963Y643968D01*
X861032Y646037D01*
X861032Y648963D01*
X858963Y651032D01*
X856037Y651032D01*
X854748Y649743D01*
X854507Y649580D01*
X854209Y649520D01*
X318855Y649520D01*
X318591Y649567D01*
X318333Y649726D01*
X318158Y649974D01*
X318093Y650270D01*
X318148Y650568D01*
X318316Y650821D01*
X318532Y651037D01*
X318532Y653963D01*
X316463Y656032D01*
X313537Y656032D01*
X312248Y654743D01*
X312007Y654580D01*
X311709Y654520D01*
X133652Y654520D01*
X133366Y654576D01*
X133114Y654743D01*
X120190Y667667D01*
X120037Y667887D01*
X119967Y668182D01*
X120018Y668481D01*
X120181Y668736D01*
X120431Y668908D01*
X120728Y668968D01*
X121463Y668968D01*
X122752Y670257D01*
X122993Y670420D01*
X123291Y670480D01*
X429209Y670480D01*
X429495Y670424D01*
X429748Y670257D01*
X431037Y668968D01*
X433963Y668968D01*
X436032Y671037D01*
X436032Y673963D01*
X433963Y676032D01*
X431037Y676032D01*
X429748Y674743D01*
X429507Y674580D01*
X429209Y674520D01*
X261355Y674520D01*
X261091Y674567D01*
X260833Y674726D01*
X260658Y674974D01*
X260593Y675270D01*
X260648Y675568D01*
X260816Y675821D01*
X261032Y676037D01*
X261032Y677218D01*
X261083Y677493D01*
X261247Y677748D01*
X261497Y677920D01*
X261794Y677980D01*
X389209Y677980D01*
X389495Y677924D01*
X389748Y677757D01*
X391037Y676468D01*
X393963Y676468D01*
X396032Y678537D01*
X396032Y681463D01*
X393963Y683532D01*
X391037Y683532D01*
X389748Y682243D01*
X389507Y682080D01*
X389209Y682020D01*
X386716Y682020D01*
X386453Y682067D01*
X386195Y682226D01*
X386020Y682474D01*
X385954Y682770D01*
X386010Y683068D01*
X386178Y683321D01*
X764102Y1061245D01*
X764343Y1061408D01*
X764640Y1061468D01*
X766463Y1061468D01*
X768532Y1063537D01*
X768532Y1066463D01*
X766463Y1068532D01*
X763537Y1068532D01*
X761468Y1066463D01*
X761468Y1064640D01*
X761412Y1064354D01*
X761245Y1064102D01*
X384386Y687243D01*
X384145Y687080D01*
X383848Y687020D01*
X276355Y687020D01*
X276091Y687067D01*
X275833Y687226D01*
X275658Y687474D01*
X275593Y687770D01*
X275648Y688068D01*
X275816Y688321D01*
X276032Y688537D01*
X276032Y690360D01*
X276088Y690646D01*
X276255Y690898D01*
X506602Y921245D01*
X506843Y921408D01*
X507140Y921468D01*
X508963Y921468D01*
X511032Y923537D01*
X511032Y926463D01*
X508963Y928532D01*
X506037Y928532D01*
X504748Y927243D01*
X504507Y927080D01*
X504209Y927020D01*
X497782Y927020D01*
X497507Y927071D01*
X497252Y927235D01*
X497080Y927485D01*
X497020Y927782D01*
X497020Y1084209D01*
X497076Y1084495D01*
X497243Y1084748D01*
X498532Y1086037D01*
X498532Y1088963D01*
X498316Y1089179D01*
X498163Y1089399D01*
X498093Y1089694D01*
X498144Y1089993D01*
X498307Y1090248D01*
X498557Y1090420D01*
X498855Y1090480D01*
X821709Y1090480D01*
X821995Y1090424D01*
X822248Y1090257D01*
X823537Y1088968D01*
X826463Y1088968D01*
X828532Y1091037D01*
X828532Y1093963D01*
X826463Y1096032D01*
X823537Y1096032D01*
X822248Y1094743D01*
X822007Y1094580D01*
X821709Y1094520D01*
X301663Y1094520D01*
X108398Y901255D01*
X108157Y901092D01*
X107860Y901032D01*
X106037Y901032D01*
X103968Y898963D01*
X103968Y896037D01*
X106037Y893968D01*
X108963Y893968D01*
X111032Y896037D01*
X111032Y897860D01*
X111088Y898146D01*
X111255Y898398D01*
X303114Y1090257D01*
X303355Y1090420D01*
X303652Y1090480D01*
X491145Y1090480D01*
X491409Y1090433D01*
X491667Y1090274D01*
X491842Y1090026D01*
X491907Y1089730D01*
X491852Y1089432D01*
X491684Y1089179D01*
X491468Y1088963D01*
X491468Y1086037D01*
X492757Y1084748D01*
X492920Y1084507D01*
X492980Y1084209D01*
X492980Y924163D01*
X494163Y922980D01*
X500784Y922980D01*
X501047Y922933D01*
X501305Y922774D01*
X501480Y922526D01*
X501546Y922230D01*
X501490Y921932D01*
X501322Y921679D01*
X273398Y693755D01*
X273157Y693592D01*
X272860Y693532D01*
X271037Y693532D01*
X268968Y691463D01*
X268968Y688537D01*
X269184Y688321D01*
X269337Y688101D01*
X269407Y687806D01*
X269356Y687507D01*
X269193Y687252D01*
X268943Y687080D01*
X268645Y687020D01*
X260791Y687020D01*
X260505Y687076D01*
X260252Y687243D01*
X259743Y687752D01*
X259580Y687993D01*
X259520Y688291D01*
X259520Y723337D01*
X71255Y911602D01*
X71092Y911843D01*
X71032Y912140D01*
X71032Y913963D01*
X68963Y916032D01*
X66037Y916032D01*
X65821Y915816D01*
X65601Y915663D01*
X65306Y915593D01*
X65007Y915644D01*
X64752Y915807D01*
X64580Y916057D01*
X64520Y916355D01*
X64520Y934209D01*
X64576Y934495D01*
X64743Y934748D01*
X66032Y936037D01*
X66032Y938963D01*
X63963Y941032D01*
X61037Y941032D01*
X58968Y938963D01*
X58968Y936037D01*
X60257Y934748D01*
X60420Y934507D01*
X60480Y934209D01*
X60480Y814163D01*
X61663Y812980D01*
X63848Y812980D01*
X64134Y812924D01*
X64386Y812757D01*
X83745Y793398D01*
X83908Y793157D01*
X83968Y792860D01*
X83968Y791037D01*
X86037Y788968D01*
X88963Y788968D01*
X91032Y791037D01*
X91032Y793963D01*
X88963Y796032D01*
X87140Y796032D01*
X86854Y796088D01*
X86602Y796255D01*
X65837Y817020D01*
X65282Y817020D01*
X65007Y817071D01*
X64752Y817235D01*
X64580Y817485D01*
X64520Y817782D01*
X64520Y908645D01*
X64567Y908909D01*
X64726Y909167D01*
X64974Y909342D01*
X65270Y909407D01*
X65568Y909352D01*
X65821Y909184D01*
X66037Y908968D01*
X67860Y908968D01*
X68146Y908912D01*
X68398Y908745D01*
X255257Y721886D01*
X255420Y721645D01*
X255480Y721348D01*
X255480Y688291D01*
X255424Y688005D01*
X255257Y687752D01*
X253968Y686463D01*
X253968Y683537D01*
X255716Y681789D01*
X255874Y681558D01*
X255939Y681262D01*
X255884Y680964D01*
X255716Y680711D01*
X253968Y678963D01*
X253968Y676037D01*
X254184Y675821D01*
X254337Y675601D01*
X254407Y675306D01*
X254356Y675007D01*
X254193Y674752D01*
X253943Y674580D01*
X253645Y674520D01*
X123291Y674520D01*
X123005Y674576D01*
X122752Y674743D01*
X121463Y676032D01*
X118537Y676032D01*
X116789Y674284D01*
X116558Y674126D01*
X116262Y674061D01*
X115964Y674116D01*
X115711Y674284D01*
X113963Y676032D01*
X111037Y676032D01*
X108968Y673963D01*
X108968Y671037D01*
X111037Y668968D01*
X112860Y668968D01*
X113146Y668912D01*
X113398Y668745D01*
X131663Y650480D01*
X231145Y650480D01*
X231409Y650433D01*
X231667Y650274D01*
X231842Y650026D01*
X231907Y649730D01*
X231852Y649432D01*
X231684Y649179D01*
X231468Y648963D01*
X231468Y646037D01*
X231684Y645821D01*
X231837Y645601D01*
X231907Y645306D01*
X231856Y645007D01*
X231693Y644752D01*
X231443Y644580D01*
X231145Y644520D01*
X171663Y644520D01*
X127333Y600190D01*
X127113Y600037D01*
X126818Y599967D01*
X126519Y600018D01*
X126264Y600181D01*
X126092Y600431D01*
X126032Y600728D01*
X126032Y601463D01*
X123963Y603532D01*
X121037Y603532D01*
X118968Y601463D01*
X118968Y599640D01*
X118912Y599354D01*
X118745Y599102D01*
X72980Y553337D01*
X72980Y134163D01*
X74163Y132980D01*
X141709Y132980D01*
X141995Y132924D01*
X142248Y132757D01*
X143537Y131468D01*
X146463Y131468D01*
X148532Y133537D01*
X148532Y136463D01*
X146463Y138532D01*
X143537Y138532D01*
X142248Y137243D01*
X142007Y137080D01*
X141709Y137020D01*
X77782Y137020D01*
X77507Y137071D01*
X77252Y137235D01*
X77080Y137485D01*
X77020Y137782D01*
X77020Y260784D01*
X77067Y261047D01*
X77226Y261305D01*
X77474Y261480D01*
X77770Y261546D01*
X78068Y261490D01*
X78321Y261322D01*
X201245Y138398D01*
X201408Y138157D01*
X201468Y137860D01*
X201468Y136037D01*
X203537Y133968D01*
X206463Y133968D01*
X208211Y135716D01*
X208442Y135874D01*
X208738Y135939D01*
X209036Y135884D01*
X209289Y135716D01*
X211037Y133968D01*
X211772Y133968D01*
X212035Y133921D01*
X212293Y133762D01*
X212468Y133514D01*
X212534Y133218D01*
X212478Y132920D01*
X212310Y132667D01*
X173398Y93755D01*
X173157Y93592D01*
X172860Y93532D01*
X171037Y93532D01*
X168968Y91463D01*
X168968Y88537D01*
X171037Y86468D01*
X173963Y86468D01*
X176032Y88537D01*
X176032Y90360D01*
X176088Y90646D01*
X176255Y90898D01*
X335167Y249810D01*
X335387Y249963D01*
X335682Y250033D01*
X335981Y249982D01*
X336236Y249819D01*
X336408Y249569D01*
X336468Y249272D01*
X336468Y248537D01*
X338537Y246468D01*
X341463Y246468D01*
X342752Y247757D01*
X342993Y247920D01*
X343291Y247980D01*
X358848Y247980D01*
X359134Y247924D01*
X359386Y247757D01*
X417310Y189833D01*
X417463Y189613D01*
X417533Y189318D01*
X417482Y189019D01*
X417319Y188764D01*
X417069Y188592D01*
X416772Y188532D01*
X416037Y188532D01*
X413968Y186463D01*
X413968Y183537D01*
X416037Y181468D01*
X417860Y181468D01*
X418146Y181412D01*
X418398Y181245D01*
X459163Y140480D01*
X849209Y140480D01*
X849495Y140424D01*
X849748Y140257D01*
X851037Y138968D01*
X853963Y138968D01*
X855252Y140257D01*
X855493Y140420D01*
X855791Y140480D01*
X1331709Y140480D01*
X1331995Y140424D01*
X1332248Y140257D01*
X1333537Y138968D01*
X1336463Y138968D01*
X1338532Y141037D01*
X1338532Y143963D01*
X1336463Y146032D01*
X1333537Y146032D01*
X1332248Y144743D01*
X1332007Y144580D01*
X1331709Y144520D01*
X1281355Y144520D01*
X1281091Y144567D01*
X1280833Y144726D01*
X1280658Y144974D01*
X1280593Y145270D01*
X1280648Y145568D01*
X1280816Y145821D01*
X1281032Y146037D01*
X1281032Y148963D01*
X1278963Y151032D01*
X1276037Y151032D01*
X1274748Y149743D01*
X1274507Y149580D01*
X1274209Y149520D01*
X1102782Y149520D01*
X1102507Y149571D01*
X1102252Y149735D01*
X1102080Y149985D01*
X1102020Y150282D01*
X1102020Y300837D01*
X958678Y444179D01*
X958525Y444399D01*
X958455Y444694D01*
X958506Y444993D01*
X958669Y445248D01*
X958919Y445420D01*
X959216Y445480D01*
X1111348Y445480D01*
X1111634Y445424D01*
X1111886Y445257D01*
X1491245Y65898D01*
X1491408Y65657D01*
X1491468Y65360D01*
X1491468Y63537D01*
X1493537Y61468D01*
G37*
G36*
X141037Y846468D02*
X143963Y846468D01*
X146032Y848537D01*
X146032Y850360D01*
X146088Y850646D01*
X146255Y850898D01*
X216602Y921245D01*
X216843Y921408D01*
X217140Y921468D01*
X218963Y921468D01*
X221032Y923537D01*
X221032Y926463D01*
X219743Y927752D01*
X219580Y927993D01*
X219520Y928291D01*
X219520Y992218D01*
X219571Y992493D01*
X219735Y992748D01*
X219985Y992920D01*
X220282Y992980D01*
X221709Y992980D01*
X221995Y992924D01*
X222248Y992757D01*
X223537Y991468D01*
X226463Y991468D01*
X228532Y993537D01*
X228532Y996463D01*
X226463Y998532D01*
X223537Y998532D01*
X222248Y997243D01*
X222007Y997080D01*
X221709Y997020D01*
X216663Y997020D01*
X215480Y995837D01*
X215480Y928291D01*
X215424Y928005D01*
X215257Y927752D01*
X213968Y926463D01*
X213968Y924640D01*
X213912Y924354D01*
X213745Y924102D01*
X143398Y853755D01*
X143157Y853592D01*
X142860Y853532D01*
X141037Y853532D01*
X138968Y851463D01*
X138968Y848537D01*
X141037Y846468D01*
G37*
G36*
X1131037Y611468D02*
X1133963Y611468D01*
X1136032Y613537D01*
X1136032Y616463D01*
X1133963Y618532D01*
X1132140Y618532D01*
X1131854Y618588D01*
X1131602Y618755D01*
X1103337Y647020D01*
X895791Y647020D01*
X895505Y647076D01*
X895252Y647243D01*
X893963Y648532D01*
X891037Y648532D01*
X888968Y646463D01*
X888968Y643537D01*
X891037Y641468D01*
X893963Y641468D01*
X895252Y642757D01*
X895493Y642920D01*
X895791Y642980D01*
X1101348Y642980D01*
X1101634Y642924D01*
X1101886Y642757D01*
X1128745Y615898D01*
X1128908Y615657D01*
X1128968Y615360D01*
X1128968Y613537D01*
X1131037Y611468D01*
G37*
G36*
X1003537Y613968D02*
X1006463Y613968D01*
X1008532Y616037D01*
X1008532Y618963D01*
X1006463Y621032D01*
X1004640Y621032D01*
X1004354Y621088D01*
X1004102Y621255D01*
X998337Y627020D01*
X918291Y627020D01*
X918005Y627076D01*
X917752Y627243D01*
X916463Y628532D01*
X913537Y628532D01*
X911468Y626463D01*
X911468Y623537D01*
X913537Y621468D01*
X916463Y621468D01*
X917752Y622757D01*
X917993Y622920D01*
X918291Y622980D01*
X996348Y622980D01*
X996634Y622924D01*
X996886Y622757D01*
X1001245Y618398D01*
X1001408Y618157D01*
X1001468Y617860D01*
X1001468Y616037D01*
X1003537Y613968D01*
G37*
G36*
X1648195Y557050D02*
X1652545Y557050D01*
X1655620Y560125D01*
X1655620Y564475D01*
X1654334Y565761D01*
X1654176Y565991D01*
X1654111Y566288D01*
X1654166Y566586D01*
X1654334Y566839D01*
X1656032Y568537D01*
X1656032Y571463D01*
X1653963Y573532D01*
X1651037Y573532D01*
X1649748Y572243D01*
X1649507Y572080D01*
X1649209Y572020D01*
X1578652Y572020D01*
X1578366Y572076D01*
X1578114Y572243D01*
X1576255Y574102D01*
X1576092Y574343D01*
X1576032Y574640D01*
X1576032Y576463D01*
X1573963Y578532D01*
X1571037Y578532D01*
X1568968Y576463D01*
X1568968Y573537D01*
X1571037Y571468D01*
X1572860Y571468D01*
X1573146Y571412D01*
X1573398Y571245D01*
X1576663Y567980D01*
X1646786Y567980D01*
X1647049Y567933D01*
X1647307Y567774D01*
X1647483Y567526D01*
X1647548Y567230D01*
X1647492Y566932D01*
X1647325Y566679D01*
X1645120Y564475D01*
X1645120Y560125D01*
X1648195Y557050D01*
G37*
G36*
X1648195Y499250D02*
X1652545Y499250D01*
X1655620Y502325D01*
X1655620Y506675D01*
X1652545Y509750D01*
X1648195Y509750D01*
X1645120Y506675D01*
X1645120Y502325D01*
X1648195Y499250D01*
G37*
G36*
X1248537Y391468D02*
X1251463Y391468D01*
X1253532Y393537D01*
X1253532Y396463D01*
X1252243Y397752D01*
X1252080Y397993D01*
X1252020Y398291D01*
X1252020Y408337D01*
X1250837Y409520D01*
X1250791Y409520D01*
X1250505Y409576D01*
X1250252Y409743D01*
X1248963Y411032D01*
X1246037Y411032D01*
X1243968Y408963D01*
X1243968Y406037D01*
X1246037Y403968D01*
X1247218Y403968D01*
X1247493Y403917D01*
X1247748Y403753D01*
X1247920Y403503D01*
X1247980Y403206D01*
X1247980Y398291D01*
X1247924Y398005D01*
X1247757Y397752D01*
X1246468Y396463D01*
X1246468Y393537D01*
X1248537Y391468D01*
G37*
%LPD*%
G36*
X96081Y464580D02*
X95784Y464520D01*
X87782Y464520D01*
X87507Y464571D01*
X87252Y464735D01*
X87080Y464985D01*
X87020Y465282D01*
X87020Y551348D01*
X87076Y551634D01*
X87243Y551886D01*
X90614Y555257D01*
X90855Y555420D01*
X91152Y555480D01*
X368337Y555480D01*
X409102Y596245D01*
X409343Y596408D01*
X409640Y596468D01*
X411463Y596468D01*
X413532Y598537D01*
X413532Y601463D01*
X413316Y601679D01*
X413163Y601899D01*
X413093Y602194D01*
X413144Y602493D01*
X413307Y602748D01*
X413557Y602920D01*
X413855Y602980D01*
X843848Y602980D01*
X844134Y602924D01*
X844386Y602757D01*
X903822Y543321D01*
X903975Y543101D01*
X904045Y542806D01*
X903994Y542507D01*
X903831Y542252D01*
X903581Y542080D01*
X903284Y542020D01*
X196663Y542020D01*
X183398Y528755D01*
X183157Y528592D01*
X182860Y528532D01*
X181037Y528532D01*
X178968Y526463D01*
X178968Y523537D01*
X179184Y523321D01*
X179337Y523101D01*
X179407Y522806D01*
X179356Y522507D01*
X179193Y522252D01*
X178943Y522080D01*
X178645Y522020D01*
X119294Y522020D01*
X119019Y522071D01*
X118764Y522235D01*
X118592Y522485D01*
X118532Y522782D01*
X118532Y523963D01*
X116463Y526032D01*
X114640Y526032D01*
X114354Y526088D01*
X114102Y526255D01*
X96255Y544102D01*
X96092Y544343D01*
X96032Y544640D01*
X96032Y546463D01*
X93963Y548532D01*
X91037Y548532D01*
X88968Y546463D01*
X88968Y543537D01*
X91037Y541468D01*
X92860Y541468D01*
X93146Y541412D01*
X93398Y541245D01*
X111245Y523398D01*
X111408Y523157D01*
X111468Y522860D01*
X111468Y521037D01*
X113537Y518968D01*
X115360Y518968D01*
X115646Y518912D01*
X115898Y518745D01*
X116663Y517980D01*
X123284Y517980D01*
X123547Y517933D01*
X123805Y517774D01*
X123980Y517526D01*
X124046Y517230D01*
X123990Y516932D01*
X123822Y516679D01*
X108398Y501255D01*
X108157Y501092D01*
X107860Y501032D01*
X106037Y501032D01*
X103968Y498963D01*
X103968Y496037D01*
X106037Y493968D01*
X108963Y493968D01*
X111032Y496037D01*
X111032Y497860D01*
X111088Y498146D01*
X111255Y498398D01*
X125614Y512757D01*
X125855Y512920D01*
X126152Y512980D01*
X269209Y512980D01*
X269495Y512924D01*
X269748Y512757D01*
X271037Y511468D01*
X273963Y511468D01*
X276032Y513537D01*
X276032Y516463D01*
X275816Y516679D01*
X275663Y516899D01*
X275593Y517194D01*
X275644Y517493D01*
X275807Y517748D01*
X276057Y517920D01*
X276355Y517980D01*
X419209Y517980D01*
X419495Y517924D01*
X419748Y517757D01*
X421037Y516468D01*
X421772Y516468D01*
X422035Y516421D01*
X422293Y516262D01*
X422468Y516014D01*
X422534Y515718D01*
X422478Y515420D01*
X422310Y515167D01*
X381886Y474743D01*
X381645Y474580D01*
X381348Y474520D01*
X271355Y474520D01*
X271091Y474567D01*
X270833Y474726D01*
X270658Y474974D01*
X270593Y475270D01*
X270648Y475568D01*
X270816Y475821D01*
X271032Y476037D01*
X271032Y478963D01*
X268963Y481032D01*
X266037Y481032D01*
X264748Y479743D01*
X264507Y479580D01*
X264209Y479520D01*
X149163Y479520D01*
X145898Y476255D01*
X145657Y476092D01*
X145360Y476032D01*
X143537Y476032D01*
X141468Y473963D01*
X141468Y471037D01*
X141684Y470821D01*
X141837Y470601D01*
X141907Y470306D01*
X141856Y470007D01*
X141693Y469752D01*
X141443Y469580D01*
X141145Y469520D01*
X100282Y469520D01*
X100007Y469571D01*
X99752Y469735D01*
X99580Y469985D01*
X99520Y470282D01*
X99520Y524209D01*
X99576Y524495D01*
X99743Y524748D01*
X101032Y526037D01*
X101032Y528963D01*
X98963Y531032D01*
X96037Y531032D01*
X93968Y528963D01*
X93968Y526037D01*
X95257Y524748D01*
X95420Y524507D01*
X95480Y524209D01*
X95480Y466663D01*
X96322Y465821D01*
X96475Y465601D01*
X96545Y465306D01*
X96494Y465007D01*
X96331Y464752D01*
X96081Y464580D01*
G37*
%LPC*%
G36*
X451037Y553968D02*
X453963Y553968D01*
X456032Y556037D01*
X456032Y557860D01*
X456088Y558146D01*
X456255Y558398D01*
X491602Y593745D01*
X491843Y593908D01*
X492140Y593968D01*
X493963Y593968D01*
X496032Y596037D01*
X496032Y598963D01*
X493963Y601032D01*
X491037Y601032D01*
X488968Y598963D01*
X488968Y597140D01*
X488912Y596854D01*
X488745Y596602D01*
X453398Y561255D01*
X453157Y561092D01*
X452860Y561032D01*
X451037Y561032D01*
X448968Y558963D01*
X448968Y556037D01*
X451037Y553968D01*
G37*
G36*
X221037Y493968D02*
X223963Y493968D01*
X225252Y495257D01*
X225493Y495420D01*
X225791Y495480D01*
X281709Y495480D01*
X281995Y495424D01*
X282248Y495257D01*
X283537Y493968D01*
X286463Y493968D01*
X288532Y496037D01*
X288532Y498963D01*
X286463Y501032D01*
X283537Y501032D01*
X282248Y499743D01*
X282007Y499580D01*
X281709Y499520D01*
X225791Y499520D01*
X225505Y499576D01*
X225252Y499743D01*
X223963Y501032D01*
X221037Y501032D01*
X218968Y498963D01*
X218968Y496037D01*
X221037Y493968D01*
G37*
%LPD*%
G36*
X217113Y137537D02*
X216818Y137467D01*
X216519Y137518D01*
X216264Y137681D01*
X216092Y137931D01*
X216032Y138228D01*
X216032Y138963D01*
X213963Y141032D01*
X212140Y141032D01*
X211854Y141088D01*
X211602Y141255D01*
X149743Y203114D01*
X149580Y203355D01*
X149520Y203652D01*
X149520Y459209D01*
X149576Y459495D01*
X149743Y459748D01*
X151032Y461037D01*
X151032Y463963D01*
X150816Y464179D01*
X150663Y464399D01*
X150593Y464694D01*
X150644Y464993D01*
X150807Y465248D01*
X151057Y465420D01*
X151355Y465480D01*
X233848Y465480D01*
X234134Y465424D01*
X234386Y465257D01*
X258822Y440821D01*
X258975Y440601D01*
X259045Y440306D01*
X258994Y440007D01*
X258831Y439752D01*
X258581Y439580D01*
X258284Y439520D01*
X170791Y439520D01*
X170505Y439576D01*
X170252Y439743D01*
X168963Y441032D01*
X166037Y441032D01*
X163968Y438963D01*
X163968Y436037D01*
X165257Y434748D01*
X165420Y434507D01*
X165480Y434209D01*
X165480Y218291D01*
X165424Y218005D01*
X165257Y217752D01*
X163968Y216463D01*
X163968Y213537D01*
X164184Y213321D01*
X164337Y213101D01*
X164407Y212806D01*
X164356Y212507D01*
X164193Y212252D01*
X163943Y212080D01*
X163645Y212020D01*
X157782Y212020D01*
X157507Y212071D01*
X157252Y212235D01*
X157080Y212485D01*
X157020Y212782D01*
X157020Y434209D01*
X157076Y434495D01*
X157243Y434748D01*
X158532Y436037D01*
X158532Y438963D01*
X156463Y441032D01*
X153537Y441032D01*
X151468Y438963D01*
X151468Y436037D01*
X152757Y434748D01*
X152920Y434507D01*
X152980Y434209D01*
X152980Y209163D01*
X154163Y207980D01*
X170837Y207980D01*
X239520Y276663D01*
X239520Y286709D01*
X239576Y286995D01*
X239743Y287248D01*
X240252Y287757D01*
X240493Y287920D01*
X240791Y287980D01*
X476709Y287980D01*
X476995Y287924D01*
X477248Y287757D01*
X478537Y286468D01*
X481463Y286468D01*
X482752Y287757D01*
X482993Y287920D01*
X483291Y287980D01*
X551348Y287980D01*
X551634Y287924D01*
X551886Y287757D01*
X579810Y259833D01*
X579963Y259613D01*
X580033Y259318D01*
X579982Y259019D01*
X579819Y258764D01*
X579569Y258592D01*
X579272Y258532D01*
X578537Y258532D01*
X577248Y257243D01*
X577007Y257080D01*
X576709Y257020D01*
X336663Y257020D01*
X217333Y137690D01*
X217113Y137537D01*
G37*
G36*
X871081Y144580D02*
X870784Y144520D01*
X855791Y144520D01*
X855505Y144576D01*
X855252Y144743D01*
X853963Y146032D01*
X851794Y146032D01*
X851519Y146083D01*
X851264Y146247D01*
X851092Y146497D01*
X851032Y146794D01*
X851032Y148963D01*
X848963Y151032D01*
X846037Y151032D01*
X844748Y149743D01*
X844507Y149580D01*
X844209Y149520D01*
X678855Y149520D01*
X678591Y149567D01*
X678333Y149726D01*
X678158Y149974D01*
X678093Y150270D01*
X678148Y150568D01*
X678316Y150821D01*
X678532Y151037D01*
X678532Y153963D01*
X677243Y155252D01*
X677080Y155493D01*
X677020Y155791D01*
X677020Y161709D01*
X677076Y161995D01*
X677243Y162248D01*
X678532Y163537D01*
X678532Y166463D01*
X678316Y166679D01*
X678163Y166899D01*
X678093Y167194D01*
X678144Y167493D01*
X678307Y167748D01*
X678557Y167920D01*
X678855Y167980D01*
X828848Y167980D01*
X829134Y167924D01*
X829386Y167757D01*
X838745Y158398D01*
X838908Y158157D01*
X838968Y157860D01*
X838968Y156037D01*
X841037Y153968D01*
X843963Y153968D01*
X846032Y156037D01*
X846032Y158963D01*
X843963Y161032D01*
X842140Y161032D01*
X841854Y161088D01*
X841602Y161255D01*
X830837Y172020D01*
X673652Y172020D01*
X673366Y172076D01*
X673114Y172243D01*
X553337Y292020D01*
X483291Y292020D01*
X483005Y292076D01*
X482752Y292243D01*
X481463Y293532D01*
X478537Y293532D01*
X477248Y292243D01*
X477007Y292080D01*
X476709Y292020D01*
X240791Y292020D01*
X240505Y292076D01*
X240252Y292243D01*
X238963Y293532D01*
X236037Y293532D01*
X233968Y291463D01*
X233968Y288537D01*
X235257Y287248D01*
X235420Y287007D01*
X235480Y286709D01*
X235480Y278652D01*
X235424Y278366D01*
X235257Y278114D01*
X172333Y215190D01*
X172113Y215037D01*
X171818Y214967D01*
X171519Y215018D01*
X171264Y215181D01*
X171092Y215431D01*
X171032Y215728D01*
X171032Y216463D01*
X169743Y217752D01*
X169580Y217993D01*
X169520Y218291D01*
X169520Y434209D01*
X169576Y434495D01*
X169743Y434748D01*
X170252Y435257D01*
X170493Y435420D01*
X170791Y435480D01*
X243645Y435480D01*
X243909Y435433D01*
X244167Y435274D01*
X244342Y435026D01*
X244407Y434730D01*
X244352Y434432D01*
X244184Y434179D01*
X243968Y433963D01*
X243968Y431037D01*
X246037Y428968D01*
X247860Y428968D01*
X248146Y428912D01*
X248398Y428745D01*
X289810Y387333D01*
X289963Y387113D01*
X290033Y386818D01*
X289982Y386519D01*
X289819Y386264D01*
X289569Y386092D01*
X289272Y386032D01*
X288537Y386032D01*
X286468Y383963D01*
X286468Y382140D01*
X286412Y381854D01*
X286245Y381602D01*
X264386Y359743D01*
X264145Y359580D01*
X263848Y359520D01*
X203291Y359520D01*
X203005Y359576D01*
X202752Y359743D01*
X201463Y361032D01*
X198537Y361032D01*
X196468Y358963D01*
X196468Y356037D01*
X198537Y353968D01*
X201463Y353968D01*
X202752Y355257D01*
X202993Y355420D01*
X203291Y355480D01*
X265837Y355480D01*
X289102Y378745D01*
X289343Y378908D01*
X289640Y378968D01*
X291463Y378968D01*
X293532Y381037D01*
X293532Y381772D01*
X293579Y382035D01*
X293738Y382293D01*
X293986Y382468D01*
X294282Y382534D01*
X294580Y382478D01*
X294833Y382310D01*
X329163Y347980D01*
X394209Y347980D01*
X394495Y347924D01*
X394748Y347757D01*
X396037Y346468D01*
X398963Y346468D01*
X401032Y348537D01*
X401032Y351463D01*
X398963Y353532D01*
X396037Y353532D01*
X394748Y352243D01*
X394507Y352080D01*
X394209Y352020D01*
X331152Y352020D01*
X330866Y352076D01*
X330614Y352243D01*
X251255Y431602D01*
X251092Y431843D01*
X251032Y432140D01*
X251032Y433963D01*
X250816Y434179D01*
X250663Y434399D01*
X250593Y434694D01*
X250644Y434993D01*
X250807Y435248D01*
X251057Y435420D01*
X251355Y435480D01*
X951709Y435480D01*
X951995Y435424D01*
X952248Y435257D01*
X953537Y433968D01*
X956463Y433968D01*
X958532Y436037D01*
X958532Y436772D01*
X958579Y437035D01*
X958738Y437293D01*
X958986Y437468D01*
X959282Y437534D01*
X959580Y437478D01*
X959833Y437310D01*
X1097757Y299386D01*
X1097920Y299145D01*
X1097980Y298848D01*
X1097980Y258855D01*
X1097933Y258591D01*
X1097774Y258333D01*
X1097526Y258158D01*
X1097230Y258093D01*
X1096932Y258148D01*
X1096679Y258316D01*
X1096463Y258532D01*
X1094640Y258532D01*
X1094354Y258588D01*
X1094102Y258755D01*
X1080837Y272020D01*
X791663Y272020D01*
X790821Y271178D01*
X790601Y271025D01*
X790306Y270955D01*
X790007Y271006D01*
X789752Y271169D01*
X789580Y271419D01*
X789520Y271716D01*
X789520Y294718D01*
X789571Y294993D01*
X789735Y295248D01*
X789985Y295420D01*
X790282Y295480D01*
X984209Y295480D01*
X984495Y295424D01*
X984748Y295257D01*
X986037Y293968D01*
X988963Y293968D01*
X991032Y296037D01*
X991032Y298963D01*
X988963Y301032D01*
X986037Y301032D01*
X984748Y299743D01*
X984507Y299580D01*
X984209Y299520D01*
X789216Y299520D01*
X788953Y299567D01*
X788695Y299726D01*
X788520Y299974D01*
X788454Y300270D01*
X788510Y300568D01*
X788678Y300821D01*
X855614Y367757D01*
X855855Y367920D01*
X856152Y367980D01*
X876709Y367980D01*
X876995Y367924D01*
X877248Y367757D01*
X878537Y366468D01*
X881463Y366468D01*
X883532Y368537D01*
X883532Y371463D01*
X881463Y373532D01*
X878537Y373532D01*
X877248Y372243D01*
X877007Y372080D01*
X876709Y372020D01*
X854163Y372020D01*
X740898Y258755D01*
X740657Y258592D01*
X740360Y258532D01*
X738537Y258532D01*
X738321Y258316D01*
X738101Y258163D01*
X737806Y258093D01*
X737507Y258144D01*
X737252Y258307D01*
X737080Y258557D01*
X737020Y258855D01*
X737020Y306709D01*
X737076Y306995D01*
X737243Y307248D01*
X738532Y308537D01*
X738532Y311463D01*
X736463Y313532D01*
X733537Y313532D01*
X731468Y311463D01*
X731468Y308537D01*
X732757Y307248D01*
X732920Y307007D01*
X732980Y306709D01*
X732980Y221716D01*
X732933Y221453D01*
X732774Y221195D01*
X732526Y221020D01*
X732230Y220954D01*
X731932Y221010D01*
X731679Y221178D01*
X713755Y239102D01*
X713592Y239343D01*
X713532Y239640D01*
X713532Y241463D01*
X711463Y243532D01*
X708537Y243532D01*
X707248Y242243D01*
X707007Y242080D01*
X706709Y242020D01*
X705282Y242020D01*
X705007Y242071D01*
X704752Y242235D01*
X704580Y242485D01*
X704520Y242782D01*
X704520Y306709D01*
X704576Y306995D01*
X704743Y307248D01*
X706032Y308537D01*
X706032Y311463D01*
X703963Y313532D01*
X701037Y313532D01*
X698968Y311463D01*
X698968Y308537D01*
X700257Y307248D01*
X700420Y307007D01*
X700480Y306709D01*
X700480Y243855D01*
X700433Y243591D01*
X700274Y243333D01*
X700026Y243158D01*
X699730Y243093D01*
X699432Y243148D01*
X699179Y243316D01*
X698963Y243532D01*
X696037Y243532D01*
X694748Y242243D01*
X694507Y242080D01*
X694209Y242020D01*
X687782Y242020D01*
X687507Y242071D01*
X687252Y242235D01*
X687080Y242485D01*
X687020Y242782D01*
X687020Y306709D01*
X687076Y306995D01*
X687243Y307248D01*
X688532Y308537D01*
X688532Y311463D01*
X686463Y313532D01*
X683537Y313532D01*
X681468Y311463D01*
X681468Y308537D01*
X682757Y307248D01*
X682920Y307007D01*
X682980Y306709D01*
X682980Y239163D01*
X684163Y237980D01*
X694209Y237980D01*
X694495Y237924D01*
X694748Y237757D01*
X696037Y236468D01*
X697860Y236468D01*
X698146Y236412D01*
X698398Y236245D01*
X754163Y180480D01*
X868645Y180480D01*
X868909Y180433D01*
X869167Y180274D01*
X869342Y180026D01*
X869407Y179730D01*
X869352Y179432D01*
X869184Y179179D01*
X868968Y178963D01*
X868968Y176037D01*
X871037Y173968D01*
X872860Y173968D01*
X873146Y173912D01*
X873398Y173745D01*
X888745Y158398D01*
X888908Y158157D01*
X888968Y157860D01*
X888968Y156794D01*
X888917Y156519D01*
X888753Y156264D01*
X888503Y156092D01*
X888206Y156032D01*
X886037Y156032D01*
X883968Y153963D01*
X883968Y151037D01*
X884184Y150821D01*
X884337Y150601D01*
X884407Y150306D01*
X884356Y150007D01*
X884193Y149752D01*
X883943Y149580D01*
X883645Y149520D01*
X873652Y149520D01*
X873366Y149576D01*
X873114Y149743D01*
X866255Y156602D01*
X866092Y156843D01*
X866032Y157140D01*
X866032Y158963D01*
X863963Y161032D01*
X861037Y161032D01*
X858968Y158963D01*
X858968Y156037D01*
X861037Y153968D01*
X862860Y153968D01*
X863146Y153912D01*
X863398Y153745D01*
X871322Y145821D01*
X871475Y145601D01*
X871545Y145306D01*
X871494Y145007D01*
X871331Y144752D01*
X871081Y144580D01*
G37*
%LPC*%
G36*
X948537Y386468D02*
X951463Y386468D01*
X953532Y388537D01*
X953532Y391463D01*
X951463Y393532D01*
X948537Y393532D01*
X947248Y392243D01*
X947007Y392080D01*
X946709Y392020D01*
X923652Y392020D01*
X923366Y392076D01*
X923114Y392243D01*
X898755Y416602D01*
X898592Y416843D01*
X898532Y417140D01*
X898532Y418963D01*
X896463Y421032D01*
X893537Y421032D01*
X891468Y418963D01*
X891468Y416037D01*
X893537Y413968D01*
X895360Y413968D01*
X895646Y413912D01*
X895898Y413745D01*
X921663Y387980D01*
X946709Y387980D01*
X946995Y387924D01*
X947248Y387757D01*
X948537Y386468D01*
G37*
%LPD*%
G36*
X798943Y189580D02*
X798645Y189520D01*
X763652Y189520D01*
X763366Y189576D01*
X763114Y189743D01*
X740190Y212667D01*
X740037Y212887D01*
X739967Y213182D01*
X740018Y213481D01*
X740181Y213736D01*
X740431Y213908D01*
X740728Y213968D01*
X741463Y213968D01*
X743532Y216037D01*
X743532Y218963D01*
X741463Y221032D01*
X739640Y221032D01*
X739354Y221088D01*
X739102Y221255D01*
X738337Y222020D01*
X737782Y222020D01*
X737507Y222071D01*
X737252Y222235D01*
X737080Y222485D01*
X737020Y222782D01*
X737020Y251145D01*
X737067Y251409D01*
X737226Y251667D01*
X737474Y251842D01*
X737770Y251907D01*
X738068Y251852D01*
X738321Y251684D01*
X738537Y251468D01*
X741463Y251468D01*
X743532Y253537D01*
X743532Y255360D01*
X743588Y255646D01*
X743755Y255898D01*
X784179Y296322D01*
X784399Y296475D01*
X784694Y296545D01*
X784993Y296494D01*
X785248Y296331D01*
X785420Y296081D01*
X785480Y295784D01*
X785480Y214163D01*
X793745Y205898D01*
X793908Y205657D01*
X793968Y205360D01*
X793968Y203537D01*
X796037Y201468D01*
X798963Y201468D01*
X801032Y203537D01*
X801032Y206463D01*
X798963Y208532D01*
X797140Y208532D01*
X796854Y208588D01*
X796602Y208755D01*
X792690Y212667D01*
X792537Y212887D01*
X792467Y213182D01*
X792518Y213481D01*
X792681Y213736D01*
X792931Y213908D01*
X793228Y213968D01*
X793963Y213968D01*
X796032Y216037D01*
X796032Y218963D01*
X794743Y220252D01*
X794580Y220493D01*
X794520Y220791D01*
X794520Y267218D01*
X794571Y267493D01*
X794735Y267748D01*
X794985Y267920D01*
X795282Y267980D01*
X966145Y267980D01*
X966409Y267933D01*
X966667Y267774D01*
X966842Y267526D01*
X966907Y267230D01*
X966852Y266932D01*
X966684Y266679D01*
X966468Y266463D01*
X966468Y263537D01*
X967757Y262248D01*
X967920Y262007D01*
X967980Y261709D01*
X967980Y260282D01*
X967929Y260007D01*
X967765Y259752D01*
X967515Y259580D01*
X967218Y259520D01*
X804163Y259520D01*
X802980Y258337D01*
X802980Y236663D01*
X805257Y234386D01*
X805420Y234145D01*
X805480Y233848D01*
X805480Y220791D01*
X805424Y220505D01*
X805257Y220252D01*
X803968Y218963D01*
X803968Y216037D01*
X806037Y213968D01*
X808963Y213968D01*
X811032Y216037D01*
X811032Y218963D01*
X809743Y220252D01*
X809580Y220493D01*
X809520Y220791D01*
X809520Y235706D01*
X809571Y235981D01*
X809735Y236236D01*
X809985Y236408D01*
X810282Y236468D01*
X811463Y236468D01*
X812752Y237757D01*
X812993Y237920D01*
X813291Y237980D01*
X813848Y237980D01*
X814134Y237924D01*
X814386Y237757D01*
X828745Y223398D01*
X828908Y223157D01*
X828968Y222860D01*
X828968Y221037D01*
X829184Y220821D01*
X829337Y220601D01*
X829407Y220306D01*
X829356Y220007D01*
X829193Y219752D01*
X828943Y219580D01*
X828645Y219520D01*
X825791Y219520D01*
X825505Y219576D01*
X825252Y219743D01*
X823963Y221032D01*
X821037Y221032D01*
X818968Y218963D01*
X818968Y216794D01*
X818917Y216519D01*
X818753Y216264D01*
X818503Y216092D01*
X818206Y216032D01*
X816037Y216032D01*
X813968Y213963D01*
X813968Y211794D01*
X813917Y211519D01*
X813753Y211264D01*
X813503Y211092D01*
X813206Y211032D01*
X811037Y211032D01*
X808968Y208963D01*
X808968Y206037D01*
X810535Y204470D01*
X810693Y204239D01*
X810758Y203943D01*
X810703Y203645D01*
X810535Y203392D01*
X803398Y196255D01*
X803157Y196092D01*
X802860Y196032D01*
X801037Y196032D01*
X798968Y193963D01*
X798968Y191037D01*
X799184Y190821D01*
X799337Y190601D01*
X799407Y190306D01*
X799356Y190007D01*
X799193Y189752D01*
X798943Y189580D01*
G37*
D10*
X282500Y285000D02*
X247500Y285000D01*
X370000Y545000D02*
X375000Y550000D01*
X385000Y550000D01*
X130000Y545000D02*
X117500Y532500D01*
X155000Y545000D02*
X370000Y545000D01*
X155000Y545000D02*
X130000Y545000D01*
X112500Y532500D02*
X92500Y552500D01*
X112500Y532500D02*
X117500Y532500D01*
X140000Y857500D02*
X140000Y912500D01*
X205000Y845000D02*
X215000Y855000D01*
X205000Y845000D02*
X140000Y845000D01*
X137500Y847500D01*
X137500Y857500D01*
X140000Y857500D01*
X230000Y855000D02*
X230000Y1000000D01*
X230000Y855000D02*
X215000Y855000D01*
X1500000Y580000D02*
X1500000Y567500D01*
X1550000Y567500D02*
X1552500Y565000D01*
X1560000Y557500D01*
X1550000Y567500D02*
X1500000Y567500D01*
X1480000Y567500D02*
X1462500Y550000D01*
X1452500Y540000D01*
X1480000Y567500D02*
X1500000Y567500D01*
X1342500Y550000D02*
X1330000Y562500D01*
X1342500Y550000D02*
X1462500Y550000D01*
X1552500Y565000D02*
X1572500Y585000D01*
X1577500Y585000D01*
X862500Y167500D02*
X855000Y175000D01*
X862500Y167500D02*
X872500Y157500D01*
X855000Y175000D02*
X827500Y175000D01*
X847500Y152500D02*
X862500Y167500D01*
X847500Y152500D02*
X795000Y152500D01*
X867500Y262500D02*
X905000Y262500D01*
X1240000Y390000D02*
X1240000Y407500D01*
X800000Y262500D02*
X800000Y222500D01*
X800000Y262500D02*
X867500Y262500D01*
X1257500Y390000D02*
X1257500Y437500D01*
X1257500Y390000D02*
X1240000Y390000D01*
X247500Y285000D02*
X247500Y170000D01*
X245000Y170000D01*
X225000Y150000D01*
D11*
X247500Y285000D03*
X282500Y285000D03*
X370000Y545000D03*
X385000Y550000D03*
X117500Y532500D03*
X155000Y545000D03*
X92500Y552500D03*
X140000Y912500D03*
X140000Y857500D03*
X215000Y855000D03*
X230000Y1000000D03*
X1500000Y580000D03*
X1500000Y567500D03*
X1560000Y557500D03*
X1452500Y540000D03*
X1330000Y562500D03*
X1577500Y585000D03*
X872500Y157500D03*
X827500Y175000D03*
X795000Y152500D03*
X867500Y262500D03*
X905000Y262500D03*
X1240000Y407500D03*
X1240000Y390000D03*
X800000Y222500D03*
X1257500Y437500D03*
X225000Y150000D03*
D10*
X1500000Y520000D02*
X1650000Y520000D01*
D11*
X1500000Y520000D03*
X1650000Y520000D03*
D10*
X1650000Y530000D02*
X1650000Y540000D01*
X1580000Y540000D02*
X1577500Y542500D01*
X1580000Y540000D02*
X1650000Y540000D01*
D11*
X1650000Y530000D03*
X1650000Y540000D03*
X1577500Y542500D03*
D10*
X1577500Y570000D02*
X1572500Y575000D01*
X1577500Y570000D02*
X1652500Y570000D01*
D11*
X1572500Y575000D03*
X1652500Y570000D03*
D10*
X1552500Y547500D02*
X1535000Y530000D01*
X1552500Y547500D02*
X1650000Y547500D01*
D11*
X1535000Y530000D03*
X1650000Y547500D03*
D10*
X1565000Y515000D02*
X1560000Y510000D01*
X1395000Y510000D01*
X1390000Y515000D01*
X430000Y515000D01*
X382500Y467500D01*
X242500Y467500D01*
D11*
X1565000Y515000D03*
X242500Y467500D03*
D10*
X1395000Y515000D02*
X1545000Y515000D01*
X1395000Y515000D02*
X1390000Y520000D01*
X430000Y520000D01*
X382500Y472500D01*
X247500Y472500D01*
D11*
X1545000Y515000D03*
X247500Y472500D03*
D10*
X337500Y255000D02*
X172500Y90000D01*
X337500Y255000D02*
X580000Y255000D01*
D11*
X172500Y90000D03*
X580000Y255000D03*
D10*
X1250000Y395000D02*
X1250000Y407500D01*
X1247500Y407500D01*
D11*
X1250000Y395000D03*
X1247500Y407500D03*
D10*
X115000Y522500D02*
X92500Y545000D01*
X117500Y520000D02*
X422500Y520000D01*
X117500Y520000D02*
X115000Y522500D01*
D11*
X115000Y522500D03*
X92500Y545000D03*
X422500Y520000D03*
D10*
X107500Y897500D02*
X302500Y1092500D01*
X825000Y1092500D01*
X830000Y170000D02*
X842500Y157500D01*
X830000Y170000D02*
X672500Y170000D01*
X552500Y290000D01*
X480000Y290000D02*
X237500Y290000D01*
X480000Y290000D02*
X552500Y290000D01*
X155000Y210000D02*
X155000Y437500D01*
X155000Y210000D02*
X170000Y210000D01*
X237500Y277500D01*
X237500Y290000D01*
X452500Y557500D02*
X492500Y597500D01*
D11*
X107500Y897500D03*
X825000Y1092500D03*
X842500Y157500D03*
X237500Y290000D03*
X480000Y290000D03*
X155000Y437500D03*
X492500Y597500D03*
X452500Y557500D03*
D10*
X462500Y147500D02*
X847500Y147500D01*
X425000Y185000D02*
X360000Y250000D01*
X425000Y185000D02*
X462500Y147500D01*
X360000Y250000D02*
X340000Y250000D01*
X425000Y185000D02*
X487500Y247500D01*
X150000Y477500D02*
X145000Y472500D01*
X150000Y477500D02*
X267500Y477500D01*
X257500Y722500D02*
X67500Y912500D01*
X257500Y722500D02*
X257500Y685000D01*
X385000Y685000D02*
X765000Y1065000D01*
X385000Y685000D02*
X257500Y685000D01*
D11*
X847500Y147500D03*
X340000Y250000D03*
X487500Y247500D03*
X145000Y472500D03*
X267500Y477500D03*
X67500Y912500D03*
X257500Y685000D03*
X765000Y1065000D03*
D10*
X62500Y937500D02*
X62500Y815000D01*
X65000Y815000D01*
X87500Y792500D01*
X290000Y382500D02*
X265000Y357500D01*
X200000Y357500D01*
X1365000Y535000D02*
X1370000Y540000D01*
X1365000Y535000D02*
X367500Y535000D01*
X132500Y652500D02*
X112500Y672500D01*
X132500Y652500D02*
X315000Y652500D01*
D11*
X62500Y937500D03*
X87500Y792500D03*
X290000Y382500D03*
X200000Y357500D03*
X1370000Y540000D03*
X367500Y535000D03*
X112500Y672500D03*
X315000Y652500D03*
D10*
X675000Y165000D02*
X675000Y152500D01*
X735000Y220000D02*
X735000Y310000D01*
X735000Y220000D02*
X737500Y220000D01*
X740000Y217500D01*
D11*
X675000Y152500D03*
X675000Y165000D03*
X735000Y310000D03*
X740000Y217500D03*
D10*
X740000Y255000D02*
X855000Y370000D01*
X880000Y370000D01*
D11*
X740000Y255000D03*
X880000Y370000D03*
D10*
X922500Y390000D02*
X895000Y417500D01*
X922500Y390000D02*
X950000Y390000D01*
D11*
X895000Y417500D03*
X950000Y390000D03*
D10*
X807500Y235000D02*
X807500Y217500D01*
X807500Y235000D02*
X805000Y237500D01*
X805000Y257500D01*
X970000Y257500D02*
X1017500Y257500D01*
X970000Y257500D02*
X805000Y257500D01*
X970000Y257500D02*
X970000Y265000D01*
D11*
X807500Y217500D03*
X1017500Y257500D03*
X970000Y265000D03*
D10*
X797500Y205000D02*
X787500Y215000D01*
X787500Y297500D01*
X987500Y297500D01*
D11*
X797500Y205000D03*
X987500Y297500D03*
D10*
X877500Y182500D02*
X902500Y157500D01*
X877500Y182500D02*
X755000Y182500D01*
X697500Y240000D01*
X685000Y240000D02*
X685000Y310000D01*
X685000Y240000D02*
X697500Y240000D01*
D11*
X902500Y157500D03*
X697500Y240000D03*
X685000Y310000D03*
D10*
X880000Y187500D02*
X910000Y157500D01*
X880000Y187500D02*
X762500Y187500D01*
X710000Y240000D01*
X702500Y240000D02*
X702500Y310000D01*
X702500Y240000D02*
X710000Y240000D01*
D11*
X910000Y157500D03*
X710000Y240000D03*
X702500Y310000D03*
D10*
X330000Y350000D02*
X247500Y432500D01*
X330000Y350000D02*
X397500Y350000D01*
X852500Y142500D02*
X1335000Y142500D01*
X460000Y142500D02*
X417500Y185000D01*
X460000Y142500D02*
X852500Y142500D01*
D11*
X247500Y432500D03*
X397500Y350000D03*
X852500Y142500D03*
X1335000Y142500D03*
X417500Y185000D03*
D10*
X285000Y497500D02*
X222500Y497500D01*
D11*
X222500Y497500D03*
X285000Y497500D03*
D10*
X217500Y925000D02*
X217500Y995000D01*
X225000Y995000D01*
X217500Y925000D02*
X142500Y850000D01*
D11*
X217500Y925000D03*
X225000Y995000D03*
X142500Y850000D03*
D10*
X120000Y672500D02*
X432500Y672500D01*
D11*
X120000Y672500D03*
X432500Y672500D03*
D10*
X122500Y600000D02*
X75000Y552500D01*
X75000Y135000D01*
X145000Y135000D01*
D11*
X122500Y600000D03*
X145000Y135000D03*
D10*
X235000Y647500D02*
X857500Y647500D01*
D11*
X235000Y647500D03*
X857500Y647500D03*
D10*
X277500Y447500D02*
X262500Y462500D01*
X277500Y447500D02*
X1112500Y447500D01*
X1495000Y65000D01*
D11*
X262500Y462500D03*
X1495000Y65000D03*
D10*
X1565000Y130000D02*
X1630000Y195000D01*
X1385000Y525000D02*
X1397500Y537500D01*
X1385000Y525000D02*
X902500Y525000D01*
X292500Y525000D02*
X282500Y535000D01*
X292500Y525000D02*
X902500Y525000D01*
X1630000Y515000D02*
X1630000Y195000D01*
X1630000Y515000D02*
X1652500Y515000D01*
X1655000Y517500D01*
X1655000Y525000D01*
X1385000Y525000D01*
D11*
X1630000Y195000D03*
X1565000Y130000D03*
X1397500Y537500D03*
X902500Y525000D03*
X282500Y535000D03*
D10*
X1387500Y545000D02*
X1390000Y542500D01*
X1387500Y545000D02*
X915000Y545000D01*
X215000Y605000D02*
X182500Y637500D01*
X215000Y605000D02*
X845000Y605000D01*
X905000Y545000D01*
X915000Y545000D01*
X1387500Y510000D02*
X1540000Y357500D01*
D11*
X1390000Y542500D03*
X915000Y545000D03*
X182500Y637500D03*
X1540000Y357500D03*
X1387500Y510000D03*
D10*
X872500Y147500D02*
X862500Y157500D01*
X1100000Y147500D02*
X1277500Y147500D01*
X1100000Y147500D02*
X872500Y147500D01*
X97500Y467500D02*
X97500Y527500D01*
X97500Y467500D02*
X235000Y467500D01*
X260000Y442500D01*
X957500Y442500D01*
X1100000Y300000D01*
X1100000Y147500D01*
D11*
X862500Y157500D03*
X1277500Y147500D03*
X97500Y527500D03*
D10*
X125000Y515000D02*
X107500Y497500D01*
X125000Y515000D02*
X272500Y515000D01*
X272500Y690000D02*
X507500Y925000D01*
X495000Y925000D02*
X495000Y1087500D01*
X495000Y925000D02*
X507500Y925000D01*
D11*
X107500Y497500D03*
X272500Y515000D03*
X272500Y690000D03*
X507500Y925000D03*
X495000Y1087500D03*
D10*
X1102500Y645000D02*
X1132500Y615000D01*
X1102500Y645000D02*
X892500Y645000D01*
X167500Y437500D02*
X167500Y215000D01*
X167500Y437500D02*
X955000Y437500D01*
D11*
X1132500Y615000D03*
X892500Y645000D03*
X167500Y437500D03*
X167500Y215000D03*
X955000Y437500D03*
D10*
X1005000Y617500D02*
X997500Y625000D01*
X915000Y625000D01*
X197500Y540000D02*
X182500Y525000D01*
X197500Y540000D02*
X1002500Y540000D01*
D11*
X1005000Y617500D03*
X915000Y625000D03*
X182500Y525000D03*
X1002500Y540000D03*
D10*
X205000Y137500D02*
X80000Y262500D01*
X80000Y552500D01*
X102500Y575000D01*
X105000Y575000D01*
X172500Y642500D02*
X370000Y642500D01*
X172500Y642500D02*
X105000Y575000D01*
D11*
X205000Y137500D03*
X105000Y575000D03*
X370000Y642500D03*
D10*
X147500Y202500D02*
X212500Y137500D01*
X147500Y202500D02*
X147500Y462500D01*
X367500Y557500D02*
X410000Y600000D01*
X367500Y557500D02*
X90000Y557500D01*
X85000Y552500D01*
X85000Y462500D01*
X147500Y462500D01*
D11*
X212500Y137500D03*
X147500Y462500D03*
X410000Y600000D03*
D10*
X260000Y680000D02*
X257500Y677500D01*
X260000Y680000D02*
X392500Y680000D01*
D11*
X257500Y677500D03*
X392500Y680000D03*
D10*
X875000Y612500D02*
X875000Y582500D01*
D11*
X875000Y612500D03*
X875000Y582500D03*
D10*
X792500Y270000D02*
X792500Y217500D01*
X792500Y270000D02*
X1080000Y270000D01*
X1095000Y255000D01*
D11*
X792500Y217500D03*
X1095000Y255000D03*
D10*
X812500Y202500D02*
X802500Y192500D01*
X812500Y202500D02*
X905000Y202500D01*
X950000Y247500D01*
X1057500Y247500D01*
D11*
X802500Y192500D03*
X1057500Y247500D03*
D10*
X905000Y207500D02*
X812500Y207500D01*
X905000Y207500D02*
X950000Y252500D01*
X982500Y252500D01*
D11*
X812500Y207500D03*
X982500Y252500D03*
D10*
X895000Y212500D02*
X817500Y212500D01*
X895000Y212500D02*
X930000Y247500D01*
X935000Y247500D01*
D11*
X817500Y212500D03*
X935000Y247500D03*
D10*
X870000Y217500D02*
X822500Y217500D01*
X870000Y217500D02*
X905000Y252500D01*
D11*
X822500Y217500D03*
X905000Y252500D03*
D10*
X912500Y152500D02*
X887500Y152500D01*
X912500Y152500D02*
X945000Y185000D01*
X945000Y235000D01*
D11*
X887500Y152500D03*
X945000Y235000D03*
D10*
X872500Y177500D02*
X892500Y157500D01*
X832500Y222500D02*
X815000Y240000D01*
X810000Y240000D01*
D11*
X892500Y157500D03*
X872500Y177500D03*
X832500Y222500D03*
X810000Y240000D03*
M02*
