G04 EAGLE Gerber RS-274X export*
G75*
%MOMM*%
%FSLAX34Y34*%
%LPD*%
%INSoldermask Bottom*%
%IPPOS*%
%AMOC8*
5,1,8,0,0,1.08239X$1,22.5*%
G01*
G04 Define Apertures*
%ADD10C,0.853200*%
%ADD11C,0.655600*%
D10*
X1650370Y504500D03*
X1650370Y562300D03*
D11*
X247500Y285000D03*
X282500Y285000D03*
X370000Y545000D03*
X385000Y550000D03*
X117500Y532500D03*
X155000Y545000D03*
X92500Y552500D03*
X140000Y912500D03*
X140000Y857500D03*
X215000Y855000D03*
X230000Y1000000D03*
X1500000Y580000D03*
X1500000Y567500D03*
X1560000Y557500D03*
X1452500Y540000D03*
X1330000Y562500D03*
X1577500Y585000D03*
X872500Y157500D03*
X827500Y175000D03*
X795000Y152500D03*
X867500Y262500D03*
X905000Y262500D03*
X1240000Y407500D03*
X1240000Y390000D03*
X800000Y222500D03*
X1257500Y437500D03*
X225000Y150000D03*
X1500000Y520000D03*
X1650000Y520000D03*
X1650000Y530000D03*
X1650000Y540000D03*
X1577500Y542500D03*
X1572500Y575000D03*
X1652500Y570000D03*
X1535000Y530000D03*
X1650000Y547500D03*
X1565000Y515000D03*
X242500Y467500D03*
X1545000Y515000D03*
X247500Y472500D03*
X172500Y90000D03*
X580000Y255000D03*
X1250000Y395000D03*
X1247500Y407500D03*
X115000Y522500D03*
X92500Y545000D03*
X422500Y520000D03*
X107500Y897500D03*
X825000Y1092500D03*
X842500Y157500D03*
X237500Y290000D03*
X480000Y290000D03*
X155000Y437500D03*
X492500Y597500D03*
X452500Y557500D03*
X847500Y147500D03*
X340000Y250000D03*
X487500Y247500D03*
X145000Y472500D03*
X267500Y477500D03*
X67500Y912500D03*
X257500Y685000D03*
X765000Y1065000D03*
X62500Y937500D03*
X87500Y792500D03*
X290000Y382500D03*
X200000Y357500D03*
X1370000Y540000D03*
X367500Y535000D03*
X112500Y672500D03*
X315000Y652500D03*
X675000Y152500D03*
X675000Y165000D03*
X735000Y310000D03*
X740000Y217500D03*
X740000Y255000D03*
X880000Y370000D03*
X895000Y417500D03*
X950000Y390000D03*
X807500Y217500D03*
X1017500Y257500D03*
X970000Y265000D03*
X797500Y205000D03*
X987500Y297500D03*
X902500Y157500D03*
X697500Y240000D03*
X685000Y310000D03*
X910000Y157500D03*
X710000Y240000D03*
X702500Y310000D03*
X247500Y432500D03*
X397500Y350000D03*
X852500Y142500D03*
X1335000Y142500D03*
X417500Y185000D03*
X222500Y497500D03*
X285000Y497500D03*
X217500Y925000D03*
X225000Y995000D03*
X142500Y850000D03*
X120000Y672500D03*
X432500Y672500D03*
X122500Y600000D03*
X145000Y135000D03*
X235000Y647500D03*
X857500Y647500D03*
X262500Y462500D03*
X1495000Y65000D03*
X1630000Y195000D03*
X1565000Y130000D03*
X1397500Y537500D03*
X902500Y525000D03*
X282500Y535000D03*
X1390000Y542500D03*
X915000Y545000D03*
X182500Y637500D03*
X1540000Y357500D03*
X1387500Y510000D03*
X862500Y157500D03*
X1277500Y147500D03*
X97500Y527500D03*
X107500Y497500D03*
X272500Y515000D03*
X272500Y690000D03*
X507500Y925000D03*
X495000Y1087500D03*
X1132500Y615000D03*
X892500Y645000D03*
X167500Y437500D03*
X167500Y215000D03*
X955000Y437500D03*
X1005000Y617500D03*
X915000Y625000D03*
X182500Y525000D03*
X1002500Y540000D03*
X205000Y137500D03*
X105000Y575000D03*
X370000Y642500D03*
X212500Y137500D03*
X147500Y462500D03*
X410000Y600000D03*
X257500Y677500D03*
X392500Y680000D03*
X875000Y612500D03*
X875000Y582500D03*
X792500Y217500D03*
X1095000Y255000D03*
X802500Y192500D03*
X1057500Y247500D03*
X812500Y207500D03*
X982500Y252500D03*
X817500Y212500D03*
X935000Y247500D03*
X822500Y217500D03*
X905000Y252500D03*
X887500Y152500D03*
X945000Y235000D03*
X892500Y157500D03*
X872500Y177500D03*
X832500Y222500D03*
X810000Y240000D03*
M02*
