M48
;GenerationSoftware,Autodesk,EAGLE,9.7.0*%
;CreationDate,2025-04-04T15:59:10Z*%
FMAT,2
ICI,OFF
METRIC,TZ,000.000
T2C0.300
T1C0.650
%
G90
M71
T1
X165037Y56230
X165037Y50450
T2
X37000Y54500
X38500Y55000
X11750Y53250
X15500Y54500
X9250Y55250
X14000Y91250
X14000Y85750
X21500Y85500
X23000Y100000
X150000Y58000
X150000Y56750
X156000Y55750
X145250Y54000
X133000Y56250
X157750Y58500
X87250Y15750
X82750Y17500
X79500Y15250
X86750Y26250
X90500Y26250
X124000Y40750
X124000Y39000
X80000Y22250
X125750Y43750
X22500Y15000
X150000Y52000
X165000Y52000
X165000Y53000
X165000Y54000
X157750Y54250
X157250Y57500
X165250Y57000
X153500Y53000
X165000Y54750
X156500Y51500
X24250Y46750
X154500Y51500
X24750Y47250
X17250Y9000
X58000Y25500
X125000Y39500
X124750Y40750
X11500Y52250
X9250Y54500
X42250Y52000
X10750Y89750
X82500Y109250
X84250Y15750
X23750Y29000
X48000Y29000
X15500Y43750
X49250Y59750
X45250Y55750
X84750Y14750
X34000Y25000
X48750Y24750
X14500Y47250
X26750Y47750
X6750Y91250
X25750Y68500
X76500Y106500
X6250Y93750
X8750Y79250
X29000Y38250
X20000Y35750
X137000Y54000
X36750Y53500
X11250Y67250
X31500Y65250
X67500Y15250
X67500Y16500
X73500Y31000
X74000Y21750
X74000Y25500
X88000Y37000
X89500Y41750
X95000Y39000
X80750Y21750
X101750Y25750
X97000Y26500
X79750Y20500
X98750Y29750
X90250Y15750
X69750Y24000
X68500Y31000
X91000Y15750
X71000Y24000
X70250Y31000
X24750Y43250
X39750Y35000
X85250Y14250
X133500Y14250
X41750Y18500
X22250Y49750
X28500Y49750
X21750Y92500
X22500Y99500
X14250Y85000
X12000Y67250
X43250Y67250
X12250Y60000
X14500Y13500
X23500Y64750
X85750Y64750
X26250Y46250
X149500Y6500
X163000Y19500
X156500Y13000
X139750Y53750
X90250Y52500
X28250Y53500
X139000Y54250
X91500Y54500
X18250Y63750
X154000Y35750
X138750Y51000
X86250Y15750
X127750Y14750
X9750Y52750
X10750Y49750
X24750Y28500
X27250Y69000
X50750Y92500
X49500Y108750
X113250Y61500
X89250Y64500
X16750Y43750
X16750Y21500
X95500Y43750
X100500Y61750
X91500Y62500
X18250Y52500
X100250Y54000
X20500Y13750
X10500Y57500
X37000Y64250
X21250Y13750
X14750Y46250
X41000Y60000
X25750Y67750
X27250Y51500
X87500Y61250
X87500Y58250
X79250Y21750
X109500Y25500
X80250Y19250
X105750Y24750
X81250Y20750
X98250Y25250
X81750Y21250
X93500Y24750
X82250Y21750
X90500Y25250
X88750Y15250
X94500Y23500
X89250Y15750
X87250Y17750
X83250Y22250
X81000Y24000
X28250Y28500
X39250Y68000
M30